<?xml version="1.0" encoding="us-ascii" standalone="no"?><svg xmlns="http://www.w3.org/2000/svg" xmlns:xlink="http://www.w3.org/1999/xlink" contentStyleType="text/css" height="2095px" preserveAspectRatio="none" style="width:1487px;height:2095px;background:#FEFEFE;" version="1.1" viewBox="0 0 1487 2095" width="1487px" zoomAndPan="magnify"><defs/><g><rect fill="#FEFEFE" height="2095" style="stroke:none;stroke-width:1.0;" width="1487" x="0" y="0"/><text fill="#000000" font-family="sans-serif" font-size="22" font-weight="bold" lengthAdjust="spacing" textLength="249.5625" x="617.4688" y="40.2119">&#19978;&#20256;&#25991;&#26723;&#30340;&#20107;&#20214;&#27969;&#26102;&#24207;&#22270;</text><rect fill="#FFFFFF" height="650.8247" style="stroke:#000000;stroke-width:1.0;" width="10" x="509" y="578.9731"/><rect fill="#FFFFFF" height="542.5615" style="stroke:#000000;stroke-width:1.0;" width="10" x="816" y="655.4819"/><rect fill="#FFFFFF" height="101.2632" style="stroke:#000000;stroke-width:1.0;" width="10" x="1055" y="1065.0259"/><rect fill="#FFFFFF" height="34.7544" style="stroke:#000000;stroke-width:1.0;" width="10" x="1290" y="1099.7803"/><rect fill="#FFFFFF" height="31.7544" style="stroke:#000000;stroke-width:1.0;" width="10" x="1396" y="911.0083"/><rect fill="#FFFFFF" height="318.5669" style="stroke:#000000;stroke-width:1.0;" width="1366.5" x="15" y="1457.5698"/><line style="stroke:#000000;stroke-width:1.0;" x1="70" x2="70" y1="136.166" y2="2011.1719"/><line style="stroke:#000000;stroke-width:1.0;" x1="301.5" x2="301.5" y1="136.166" y2="2011.1719"/><line style="stroke:#000000;stroke-width:1.0;" x1="513.5" x2="513.5" y1="136.166" y2="2011.1719"/><line style="stroke:#000000;stroke-width:1.0;" x1="821" x2="821" y1="136.166" y2="2011.1719"/><line style="stroke:#000000;stroke-width:1.0;" x1="1060" x2="1060" y1="136.166" y2="2011.1719"/><line style="stroke:#000000;stroke-width:1.0;" x1="1294.5" x2="1294.5" y1="136.166" y2="2011.1719"/><line style="stroke:#000000;stroke-width:1.0;" x1="1400.5" x2="1400.5" y1="136.166" y2="2011.1719"/><line style="stroke:#000000;stroke-width:1.0;" x1="1452.5" x2="1452.5" y1="136.166" y2="2011.1719"/><text fill="#000000" font-family="sans-serif" font-size="14" lengthAdjust="spacing" textLength="84" x="25" y="133.0898">&#30693;&#35782;&#31649;&#29702;&#29992;&#25143;</text><ellipse cx="70" cy="65.0459" fill="#FFFFFF" rx="8" ry="8" style="stroke:#000000;stroke-width:1.0;"/><path d="M70,73.0459 L70,100.0459 M57,81.0459 L83,81.0459 M70,100.0459 L57,115.0459 M70,100.0459 L83,115.0459 " fill="none" style="stroke:#000000;stroke-width:1.0;"/><text fill="#000000" font-family="sans-serif" font-size="14" lengthAdjust="spacing" textLength="84" x="25" y="2026.2158">&#30693;&#35782;&#31649;&#29702;&#29992;&#25143;</text><ellipse cx="70" cy="2038.292" fill="#FFFFFF" rx="8" ry="8" style="stroke:#000000;stroke-width:1.0;"/><path d="M70,2046.292 L70,2073.292 M57,2054.292 L83,2054.292 M70,2073.292 L57,2088.292 M70,2073.292 L83,2088.292 " fill="none" style="stroke:#000000;stroke-width:1.0;"/><rect fill="#E1F5FE" height="52.2402" rx="2.5" ry="2.5" style="stroke:#0277BD;stroke-width:1.0;" width="225" x="189.5" y="82.9258"/><text fill="#000000" font-family="sans-serif" font-size="14" lengthAdjust="spacing" textLength="84" x="260" y="105.9697">&#25991;&#26723;&#31649;&#29702;&#30028;&#38754;</text><text fill="#000000" font-family="sans-serif" font-size="14" lengthAdjust="spacing" textLength="211" x="196.5" y="125.0898">(DocumentManagementInterface)</text><rect fill="#E1F5FE" height="52.2402" rx="2.5" ry="2.5" style="stroke:#0277BD;stroke-width:1.0;" width="225" x="189.5" y="2010.1719"/><text fill="#000000" font-family="sans-serif" font-size="14" lengthAdjust="spacing" textLength="84" x="260" y="2033.2158">&#25991;&#26723;&#31649;&#29702;&#30028;&#38754;</text><text fill="#000000" font-family="sans-serif" font-size="14" lengthAdjust="spacing" textLength="211" x="196.5" y="2052.3359">(DocumentManagementInterface)</text><rect fill="#E1F5FE" height="52.2402" rx="2.5" ry="2.5" style="stroke:#0277BD;stroke-width:1.0;" width="109" x="459.5" y="82.9258"/><text fill="#000000" font-family="sans-serif" font-size="14" lengthAdjust="spacing" textLength="70" x="479" y="105.9697">&#25991;&#20214;&#25511;&#21046;&#22120;</text><text fill="#000000" font-family="sans-serif" font-size="14" lengthAdjust="spacing" textLength="95" x="466.5" y="125.0898">(FileController)</text><rect fill="#E1F5FE" height="52.2402" rx="2.5" ry="2.5" style="stroke:#0277BD;stroke-width:1.0;" width="109" x="459.5" y="2010.1719"/><text fill="#000000" font-family="sans-serif" font-size="14" lengthAdjust="spacing" textLength="70" x="479" y="2033.2158">&#25991;&#20214;&#25511;&#21046;&#22120;</text><text fill="#000000" font-family="sans-serif" font-size="14" lengthAdjust="spacing" textLength="95" x="466.5" y="2052.3359">(FileController)</text><rect fill="#E1F5FE" height="52.2402" rx="2.5" ry="2.5" style="stroke:#0277BD;stroke-width:1.0;" width="94" x="774" y="82.9258"/><text fill="#000000" font-family="sans-serif" font-size="14" lengthAdjust="spacing" textLength="56" x="793" y="105.9697">&#25991;&#20214;&#26381;&#21153;</text><text fill="#000000" font-family="sans-serif" font-size="14" lengthAdjust="spacing" textLength="80" x="781" y="125.0898">(FileService)</text><rect fill="#E1F5FE" height="52.2402" rx="2.5" ry="2.5" style="stroke:#0277BD;stroke-width:1.0;" width="94" x="774" y="2010.1719"/><text fill="#000000" font-family="sans-serif" font-size="14" lengthAdjust="spacing" textLength="56" x="793" y="2033.2158">&#25991;&#20214;&#26381;&#21153;</text><text fill="#000000" font-family="sans-serif" font-size="14" lengthAdjust="spacing" textLength="80" x="781" y="2052.3359">(FileService)</text><rect fill="#E1F5FE" height="52.2402" rx="2.5" ry="2.5" style="stroke:#0277BD;stroke-width:1.0;" width="186" x="967" y="82.9258"/><text fill="#000000" font-family="sans-serif" font-size="14" lengthAdjust="spacing" textLength="126" x="997" y="105.9697">&#21521;&#37327;&#23384;&#20648;&#20107;&#20214;&#30417;&#21548;&#22120;</text><text fill="#000000" font-family="sans-serif" font-size="14" lengthAdjust="spacing" textLength="172" x="974" y="125.0898">(VectorStoreEventListener)</text><rect fill="#E1F5FE" height="52.2402" rx="2.5" ry="2.5" style="stroke:#0277BD;stroke-width:1.0;" width="186" x="967" y="2010.1719"/><text fill="#000000" font-family="sans-serif" font-size="14" lengthAdjust="spacing" textLength="126" x="997" y="2033.2158">&#21521;&#37327;&#23384;&#20648;&#20107;&#20214;&#30417;&#21548;&#22120;</text><text fill="#000000" font-family="sans-serif" font-size="14" lengthAdjust="spacing" textLength="172" x="974" y="2052.3359">(VectorStoreEventListener)</text><rect fill="#E1F5FE" height="52.2402" rx="2.5" ry="2.5" style="stroke:#0277BD;stroke-width:1.0;" width="133" x="1228.5" y="82.9258"/><text fill="#000000" font-family="sans-serif" font-size="14" lengthAdjust="spacing" textLength="100" x="1245" y="105.9697">RAG&#23458;&#25143;&#31471;&#26381;&#21153;</text><text fill="#000000" font-family="sans-serif" font-size="14" lengthAdjust="spacing" textLength="119" x="1235.5" y="125.0898">(RagClientService)</text><rect fill="#E1F5FE" height="52.2402" rx="2.5" ry="2.5" style="stroke:#0277BD;stroke-width:1.0;" width="133" x="1228.5" y="2010.1719"/><text fill="#000000" font-family="sans-serif" font-size="14" lengthAdjust="spacing" textLength="100" x="1245" y="2033.2158">RAG&#23458;&#25143;&#31471;&#26381;&#21153;</text><text fill="#000000" font-family="sans-serif" font-size="14" lengthAdjust="spacing" textLength="119" x="1235.5" y="2052.3359">(RagClientService)</text><text fill="#000000" font-family="sans-serif" font-size="14" lengthAdjust="spacing" textLength="28" x="1384" y="113.9697">&#25991;&#20214;</text><text fill="#000000" font-family="sans-serif" font-size="14" lengthAdjust="spacing" textLength="33" x="1381.5" y="133.0898">(File)</text><ellipse cx="1401" cy="81.9258" fill="#FFFFFF" rx="12" ry="12" style="stroke:#000000;stroke-width:1.0;"/><line style="stroke:#000000;stroke-width:1.0;" x1="1389" x2="1413" y1="95.9258" y2="95.9258"/><text fill="#000000" font-family="sans-serif" font-size="14" lengthAdjust="spacing" textLength="28" x="1384" y="2026.2158">&#25991;&#20214;</text><text fill="#000000" font-family="sans-serif" font-size="14" lengthAdjust="spacing" textLength="33" x="1381.5" y="2045.3359">(File)</text><ellipse cx="1401" cy="2064.4121" fill="#FFFFFF" rx="12" ry="12" style="stroke:#000000;stroke-width:1.0;"/><line style="stroke:#000000;stroke-width:1.0;" x1="1389" x2="1413" y1="2078.4121" y2="2078.4121"/><text fill="#000000" font-family="sans-serif" font-size="14" lengthAdjust="spacing" textLength="28" x="1436" y="113.9697">&#29992;&#25143;</text><text fill="#000000" font-family="sans-serif" font-size="14" lengthAdjust="spacing" textLength="39" x="1430.5" y="133.0898">(User)</text><ellipse cx="1453" cy="81.9258" fill="#FFFFFF" rx="12" ry="12" style="stroke:#000000;stroke-width:1.0;"/><line style="stroke:#000000;stroke-width:1.0;" x1="1441" x2="1465" y1="95.9258" y2="95.9258"/><text fill="#000000" font-family="sans-serif" font-size="14" lengthAdjust="spacing" textLength="28" x="1436" y="2026.2158">&#29992;&#25143;</text><text fill="#000000" font-family="sans-serif" font-size="14" lengthAdjust="spacing" textLength="39" x="1430.5" y="2045.3359">(User)</text><ellipse cx="1453" cy="2064.4121" fill="#FFFFFF" rx="12" ry="12" style="stroke:#000000;stroke-width:1.0;"/><line style="stroke:#000000;stroke-width:1.0;" x1="1441" x2="1465" y1="2078.4121" y2="2078.4121"/><rect fill="#FFFFFF" height="650.8247" style="stroke:#000000;stroke-width:1.0;" width="10" x="509" y="578.9731"/><rect fill="#FFFFFF" height="542.5615" style="stroke:#000000;stroke-width:1.0;" width="10" x="816" y="655.4819"/><rect fill="#FFFFFF" height="101.2632" style="stroke:#000000;stroke-width:1.0;" width="10" x="1055" y="1065.0259"/><rect fill="#FFFFFF" height="34.7544" style="stroke:#000000;stroke-width:1.0;" width="10" x="1290" y="1099.7803"/><rect fill="#FFFFFF" height="31.7544" style="stroke:#000000;stroke-width:1.0;" width="10" x="1396" y="911.0083"/><rect fill="#FFFFFF" height="3" style="stroke:#FFFFFF;stroke-width:1.0;" width="1475.5" x="5" y="168.0432"/><line style="stroke:#000000;stroke-width:0.5;" x1="5" x2="1480.5" y1="168.0432" y2="168.0432"/><line style="stroke:#000000;stroke-width:0.5;" x1="5" x2="1480.5" y1="171.0432" y2="171.0432"/><rect fill="#FFFFFF" height="25.7544" style="stroke:#000000;stroke-width:1.0;" width="98.4375" x="693.5313" y="156.166"/><text fill="#000000" font-family="sans-serif" font-size="13" font-weight="bold" lengthAdjust="spacing" textLength="80.4375" x="699.5313" y="175.064">&#36827;&#20837;&#19978;&#20256;&#30028;&#38754;</text><polygon fill="#000000" points="290,211.6748,300,215.6748,290,219.6748,294,215.6748" style="stroke:#000000;stroke-width:1.0;"/><line style="stroke:#000000;stroke-width:1.0;" x1="70" x2="296" y1="215.6748" y2="215.6748"/><text fill="#000000" font-family="sans-serif" font-size="13" lengthAdjust="spacing" textLength="182" x="77" y="210.8184">&#30331;&#24405;&#31995;&#32479;&#21518;&#65292;&#36827;&#20837;&#25991;&#26723;&#31649;&#29702;&#30028;&#38754;</text><polygon fill="#000000" points="81,243.4292,71,247.4292,81,251.4292,77,247.4292" style="stroke:#000000;stroke-width:1.0;"/><line style="stroke:#000000;stroke-width:1.0;" x1="75" x2="301" y1="247.4292" y2="247.4292"/><text fill="#000000" font-family="sans-serif" font-size="13" lengthAdjust="spacing" textLength="104" x="87" y="242.5728">&#26174;&#31034;&#25991;&#26723;&#31649;&#29702;&#30028;&#38754;</text><polygon fill="#000000" points="290,275.1836,300,279.1836,290,283.1836,294,279.1836" style="stroke:#000000;stroke-width:1.0;"/><line style="stroke:#000000;stroke-width:1.0;" x1="70" x2="296" y1="279.1836" y2="279.1836"/><text fill="#000000" font-family="sans-serif" font-size="13" lengthAdjust="spacing" textLength="114" x="77" y="274.3271">&#28857;&#20987;"&#19978;&#20256;&#25991;&#26723;"&#25353;&#38062;</text><rect fill="#FFFFFF" height="3" style="stroke:#FFFFFF;stroke-width:1.0;" width="1475.5" x="5" y="309.0608"/><line style="stroke:#000000;stroke-width:0.5;" x1="5" x2="1480.5" y1="309.0608" y2="309.0608"/><line style="stroke:#000000;stroke-width:0.5;" x1="5" x2="1480.5" y1="312.0608" y2="312.0608"/><rect fill="#FFFFFF" height="25.7544" style="stroke:#000000;stroke-width:1.0;" width="98.4375" x="693.5313" y="297.1836"/><text fill="#000000" font-family="sans-serif" font-size="13" font-weight="bold" lengthAdjust="spacing" textLength="80.4375" x="699.5313" y="316.0815">&#26174;&#31034;&#19978;&#20256;&#30028;&#38754;</text><polygon fill="#000000" points="81,370.4468,71,374.4468,81,378.4468,77,374.4468" style="stroke:#000000;stroke-width:1.0;"/><line style="stroke:#000000;stroke-width:1.0;" x1="75" x2="301" y1="374.4468" y2="374.4468"/><text fill="#000000" font-family="sans-serif" font-size="13" lengthAdjust="spacing" textLength="208" x="87" y="351.8359">&#26174;&#31034;&#19978;&#20256;&#30028;&#38754;&#65292;&#25903;&#25345;&#36873;&#25321;&#22810;&#26684;&#24335;&#25991;&#26723;</text><text fill="#000000" font-family="sans-serif" font-size="13" lengthAdjust="spacing" textLength="129" x="87" y="369.5903">(PDF&#12289;DOCX&#12289;TXT&#31561;)</text><rect fill="#FFFFFF" height="3" style="stroke:#FFFFFF;stroke-width:1.0;" width="1475.5" x="5" y="404.324"/><line style="stroke:#000000;stroke-width:0.5;" x1="5" x2="1480.5" y1="404.324" y2="404.324"/><line style="stroke:#000000;stroke-width:0.5;" x1="5" x2="1480.5" y1="407.324" y2="407.324"/><rect fill="#FFFFFF" height="25.7544" style="stroke:#000000;stroke-width:1.0;" width="111.8438" x="686.8281" y="392.4468"/><text fill="#000000" font-family="sans-serif" font-size="13" font-weight="bold" lengthAdjust="spacing" textLength="93.8438" x="692.8281" y="411.3447">&#36873;&#25321;&#24182;&#19978;&#20256;&#25991;&#26723;</text><polygon fill="#000000" points="290,447.9556,300,451.9556,290,455.9556,294,451.9556" style="stroke:#000000;stroke-width:1.0;"/><line style="stroke:#000000;stroke-width:1.0;" x1="70" x2="296" y1="451.9556" y2="451.9556"/><text fill="#000000" font-family="sans-serif" font-size="13" lengthAdjust="spacing" textLength="117" x="77" y="447.0991">&#36873;&#25321;&#19968;&#20010;&#25110;&#22810;&#20010;&#25991;&#26723;</text><polygon fill="#000000" points="290,479.71,300,483.71,290,487.71,294,483.71" style="stroke:#000000;stroke-width:1.0;"/><line style="stroke:#000000;stroke-width:1.0;" x1="70" x2="296" y1="483.71" y2="483.71"/><text fill="#000000" font-family="sans-serif" font-size="13" lengthAdjust="spacing" textLength="88" x="77" y="478.8535">&#28857;&#20987;"&#30830;&#35748;&#19978;&#20256;"</text><rect fill="#FFFFFF" height="3" style="stroke:#FFFFFF;stroke-width:1.0;" width="1475.5" x="5" y="513.5872"/><line style="stroke:#000000;stroke-width:0.5;" x1="5" x2="1480.5" y1="513.5872" y2="513.5872"/><line style="stroke:#000000;stroke-width:0.5;" x1="5" x2="1480.5" y1="516.5872" y2="516.5872"/><rect fill="#FFFFFF" height="25.7544" style="stroke:#000000;stroke-width:1.0;" width="111.8438" x="686.8281" y="501.71"/><text fill="#000000" font-family="sans-serif" font-size="13" font-weight="bold" lengthAdjust="spacing" textLength="93.8438" x="692.8281" y="520.6079">&#25991;&#26723;&#39564;&#35777;&#19982;&#23384;&#20648;</text><polygon fill="#000000" points="497,574.9731,507,578.9731,497,582.9731,501,578.9731" style="stroke:#000000;stroke-width:1.0;"/><line style="stroke:#000000;stroke-width:1.0;" x1="302" x2="503" y1="578.9731" y2="578.9731"/><text fill="#000000" font-family="sans-serif" font-size="13" lengthAdjust="spacing" textLength="108" x="309" y="556.3623">POST /files/upload</text><text fill="#000000" font-family="sans-serif" font-size="13" lengthAdjust="spacing" textLength="188" x="309" y="574.1167">(file: MultipartFile, folderId: Long)</text><line style="stroke:#000000;stroke-width:1.0;" x1="519" x2="561" y1="610.7275" y2="610.7275"/><line style="stroke:#000000;stroke-width:1.0;" x1="561" x2="561" y1="610.7275" y2="623.7275"/><line style="stroke:#000000;stroke-width:1.0;" x1="520" x2="561" y1="623.7275" y2="623.7275"/><polygon fill="#000000" points="530,619.7275,520,623.7275,530,627.7275,526,623.7275" style="stroke:#000000;stroke-width:1.0;"/><text fill="#000000" font-family="sans-serif" font-size="13" lengthAdjust="spacing" textLength="105" x="526" y="605.8711">getCurrentUserId()</text><path d="M643,595.4731 L643,622.4731 L837,622.4731 L837,605.4731 L827,595.4731 L643,595.4731 " fill="#FFF3E0" style="stroke:#F57C00;stroke-width:1.0;"/><path d="M827,595.4731 L827,605.4731 L837,605.4731 L827,595.4731 " fill="#FFF3E0" style="stroke:#F57C00;stroke-width:1.0;"/><text fill="#000000" font-family="sans-serif" font-size="13" lengthAdjust="spacing" textLength="173" x="649" y="615.3711">&#20174;ThreadLocal&#33719;&#21462;&#24403;&#21069;&#29992;&#25143;ID</text><polygon fill="#000000" points="804,651.4819,814,655.4819,804,659.4819,808,655.4819" style="stroke:#000000;stroke-width:1.0;"/><line style="stroke:#000000;stroke-width:1.0;" x1="519" x2="810" y1="655.4819" y2="655.4819"/><text fill="#000000" font-family="sans-serif" font-size="13" lengthAdjust="spacing" textLength="175" x="526" y="650.6255">uploadFile(userId, folderId, file)</text><line style="stroke:#000000;stroke-width:1.0;" x1="826" x2="868" y1="687.2363" y2="687.2363"/><line style="stroke:#000000;stroke-width:1.0;" x1="868" x2="868" y1="687.2363" y2="700.2363"/><line style="stroke:#000000;stroke-width:1.0;" x1="827" x2="868" y1="700.2363" y2="700.2363"/><polygon fill="#000000" points="837,696.2363,827,700.2363,837,704.2363,833,700.2363" style="stroke:#000000;stroke-width:1.0;"/><text fill="#000000" font-family="sans-serif" font-size="13" lengthAdjust="spacing" textLength="215" x="833" y="682.3799">validateFolderAccess(userId, folderId)</text><path d="M1060,671.9819 L1060,698.9819 L1198,698.9819 L1198,681.9819 L1188,671.9819 L1060,671.9819 " fill="#FFF3E0" style="stroke:#F57C00;stroke-width:1.0;"/><path d="M1188,671.9819 L1188,681.9819 L1198,681.9819 L1188,671.9819 " fill="#FFF3E0" style="stroke:#F57C00;stroke-width:1.0;"/><text fill="#000000" font-family="sans-serif" font-size="13" lengthAdjust="spacing" textLength="117" x="1066" y="691.8799">&#39564;&#35777;&#25991;&#20214;&#22841;&#35775;&#38382;&#26435;&#38480;</text><line style="stroke:#000000;stroke-width:1.0;" x1="826" x2="868" y1="731.9907" y2="731.9907"/><line style="stroke:#000000;stroke-width:1.0;" x1="868" x2="868" y1="731.9907" y2="744.9907"/><line style="stroke:#000000;stroke-width:1.0;" x1="827" x2="868" y1="744.9907" y2="744.9907"/><polygon fill="#000000" points="837,740.9907,827,744.9907,837,748.9907,833,744.9907" style="stroke:#000000;stroke-width:1.0;"/><text fill="#000000" font-family="sans-serif" font-size="13" lengthAdjust="spacing" textLength="151" x="833" y="727.1343">createStoragePath(userId)</text><path d="M996,716.7363 L996,743.7363 L1121,743.7363 L1121,726.7363 L1111,716.7363 L996,716.7363 " fill="#FFF3E0" style="stroke:#F57C00;stroke-width:1.0;"/><path d="M1111,716.7363 L1111,726.7363 L1121,726.7363 L1111,716.7363 " fill="#FFF3E0" style="stroke:#F57C00;stroke-width:1.0;"/><text fill="#000000" font-family="sans-serif" font-size="13" lengthAdjust="spacing" textLength="104" x="1002" y="736.6343">&#21019;&#24314;&#29992;&#25143;&#23384;&#20648;&#36335;&#24452;</text><line style="stroke:#000000;stroke-width:1.0;" x1="826" x2="868" y1="776.7451" y2="776.7451"/><line style="stroke:#000000;stroke-width:1.0;" x1="868" x2="868" y1="776.7451" y2="789.7451"/><line style="stroke:#000000;stroke-width:1.0;" x1="827" x2="868" y1="789.7451" y2="789.7451"/><polygon fill="#000000" points="837,785.7451,827,789.7451,837,793.7451,833,789.7451" style="stroke:#000000;stroke-width:1.0;"/><text fill="#000000" font-family="sans-serif" font-size="13" lengthAdjust="spacing" textLength="201" x="833" y="771.8887">generateUniqueFilename(fileName)</text><path d="M1046,761.4907 L1046,788.4907 L1158,788.4907 L1158,771.4907 L1148,761.4907 L1046,761.4907 " fill="#FFF3E0" style="stroke:#F57C00;stroke-width:1.0;"/><path d="M1148,761.4907 L1148,771.4907 L1158,771.4907 L1148,761.4907 " fill="#FFF3E0" style="stroke:#F57C00;stroke-width:1.0;"/><text fill="#000000" font-family="sans-serif" font-size="13" lengthAdjust="spacing" textLength="91" x="1052" y="781.3887">&#29983;&#25104;&#21807;&#19968;&#25991;&#20214;&#21517;</text><line style="stroke:#000000;stroke-width:1.0;" x1="826" x2="868" y1="821.4995" y2="821.4995"/><line style="stroke:#000000;stroke-width:1.0;" x1="868" x2="868" y1="821.4995" y2="834.4995"/><line style="stroke:#000000;stroke-width:1.0;" x1="827" x2="868" y1="834.4995" y2="834.4995"/><polygon fill="#000000" points="837,830.4995,827,834.4995,837,838.4995,833,834.4995" style="stroke:#000000;stroke-width:1.0;"/><text fill="#000000" font-family="sans-serif" font-size="13" lengthAdjust="spacing" textLength="113" x="833" y="816.6431">validateFileFormat()</text><path d="M958,806.2451 L958,833.2451 L1096,833.2451 L1096,816.2451 L1086,806.2451 L958,806.2451 " fill="#FFF3E0" style="stroke:#F57C00;stroke-width:1.0;"/><path d="M1086,806.2451 L1086,816.2451 L1096,816.2451 L1086,806.2451 " fill="#FFF3E0" style="stroke:#F57C00;stroke-width:1.0;"/><text fill="#000000" font-family="sans-serif" font-size="13" lengthAdjust="spacing" textLength="117" x="964" y="826.1431">&#39564;&#35777;&#25991;&#26723;&#26684;&#24335;&#21644;&#22823;&#23567;</text><line style="stroke:#000000;stroke-width:1.0;" x1="826" x2="868" y1="866.2539" y2="866.2539"/><line style="stroke:#000000;stroke-width:1.0;" x1="868" x2="868" y1="866.2539" y2="879.2539"/><line style="stroke:#000000;stroke-width:1.0;" x1="827" x2="868" y1="879.2539" y2="879.2539"/><polygon fill="#000000" points="837,875.2539,827,879.2539,837,883.2539,833,879.2539" style="stroke:#000000;stroke-width:1.0;"/><text fill="#000000" font-family="sans-serif" font-size="13" lengthAdjust="spacing" textLength="179" x="833" y="861.3975">saveFileToDisk(file, targetPath)</text><path d="M1024,850.9995 L1024,877.9995 L1136,877.9995 L1136,860.9995 L1126,850.9995 L1024,850.9995 " fill="#FFF3E0" style="stroke:#F57C00;stroke-width:1.0;"/><path d="M1126,850.9995 L1126,860.9995 L1136,860.9995 L1126,850.9995 " fill="#FFF3E0" style="stroke:#F57C00;stroke-width:1.0;"/><text fill="#000000" font-family="sans-serif" font-size="13" lengthAdjust="spacing" textLength="91" x="1030" y="870.8975">&#20445;&#23384;&#25991;&#20214;&#21040;&#30913;&#30424;</text><polygon fill="#000000" points="1384,907.0083,1394,911.0083,1384,915.0083,1388,911.0083" style="stroke:#000000;stroke-width:1.0;"/><line style="stroke:#000000;stroke-width:1.0;" x1="826" x2="1390" y1="911.0083" y2="911.0083"/><text fill="#000000" font-family="sans-serif" font-size="13" lengthAdjust="spacing" textLength="90" x="833" y="906.1519">buildFileEntity()</text><polygon fill="#000000" points="837,938.7627,827,942.7627,837,946.7627,833,942.7627" style="stroke:#000000;stroke-width:1.0;"/><line style="stroke:#000000;stroke-width:1.0;" x1="831" x2="1400" y1="942.7627" y2="942.7627"/><text fill="#000000" font-family="sans-serif" font-size="13" lengthAdjust="spacing" textLength="73" x="843" y="937.9063">&#36820;&#22238;File&#23454;&#20307;</text><line style="stroke:#000000;stroke-width:1.0;" x1="826" x2="868" y1="974.5171" y2="974.5171"/><line style="stroke:#000000;stroke-width:1.0;" x1="868" x2="868" y1="974.5171" y2="987.5171"/><line style="stroke:#000000;stroke-width:1.0;" x1="827" x2="868" y1="987.5171" y2="987.5171"/><polygon fill="#000000" points="837,983.5171,827,987.5171,837,991.5171,833,987.5171" style="stroke:#000000;stroke-width:1.0;"/><text fill="#000000" font-family="sans-serif" font-size="13" lengthAdjust="spacing" textLength="165" x="833" y="969.6606">baseMapper.insert(fileEntity)</text><path d="M1010,959.2627 L1010,986.2627 L1174,986.2627 L1174,969.2627 L1164,959.2627 L1010,959.2627 " fill="#FFF3E0" style="stroke:#F57C00;stroke-width:1.0;"/><path d="M1164,959.2627 L1164,969.2627 L1174,969.2627 L1164,959.2627 " fill="#FFF3E0" style="stroke:#F57C00;stroke-width:1.0;"/><text fill="#000000" font-family="sans-serif" font-size="13" lengthAdjust="spacing" textLength="143" x="1016" y="979.1606">&#20445;&#23384;&#25991;&#20214;&#20803;&#25968;&#25454;&#21040;&#25968;&#25454;&#24211;</text><rect fill="#FFFFFF" height="3" style="stroke:#FFFFFF;stroke-width:1.0;" width="1475.5" x="5" y="1017.3943"/><line style="stroke:#000000;stroke-width:0.5;" x1="5" x2="1480.5" y1="1017.3943" y2="1017.3943"/><line style="stroke:#000000;stroke-width:0.5;" x1="5" x2="1480.5" y1="1020.3943" y2="1020.3943"/><rect fill="#FFFFFF" height="25.7544" style="stroke:#000000;stroke-width:1.0;" width="125.25" x="680.125" y="1005.5171"/><text fill="#000000" font-family="sans-serif" font-size="13" font-weight="bold" lengthAdjust="spacing" textLength="107.25" x="686.125" y="1024.415">&#35302;&#21457;&#21521;&#37327;&#23384;&#20648;&#37325;&#24314;</text><polygon fill="#000000" points="1043,1061.0259,1053,1065.0259,1043,1069.0259,1047,1065.0259" style="stroke:#000000;stroke-width:1.0;"/><line style="stroke:#000000;stroke-width:1.0;" x1="826" x2="1049" y1="1065.0259" y2="1065.0259"/><text fill="#000000" font-family="sans-serif" font-size="13" lengthAdjust="spacing" textLength="132" x="833" y="1060.1694">onFileUploaded(userId)</text><polygon fill="#000000" points="1278,1095.7803,1288,1099.7803,1278,1103.7803,1282,1099.7803" style="stroke:#000000;stroke-width:1.0;"/><line style="stroke:#000000;stroke-width:1.0;" x1="1065" x2="1284" y1="1099.7803" y2="1099.7803"/><text fill="#000000" font-family="sans-serif" font-size="13" lengthAdjust="spacing" textLength="206" x="1072" y="1094.9238">buildVectorStoreAsync(userId, true)</text><path d="M1305,1078.0259 L1305,1105.0259 L1430,1105.0259 L1430,1088.0259 L1420,1078.0259 L1305,1078.0259 " fill="#FFF3E0" style="stroke:#F57C00;stroke-width:1.0;"/><path d="M1420,1078.0259 L1420,1088.0259 L1430,1088.0259 L1420,1078.0259 " fill="#FFF3E0" style="stroke:#F57C00;stroke-width:1.0;"/><text fill="#000000" font-family="sans-serif" font-size="13" lengthAdjust="spacing" textLength="104" x="1311" y="1097.9238">&#24322;&#27493;&#37325;&#24314;&#21521;&#37327;&#23384;&#20648;</text><polygon fill="#000000" points="1076,1130.5347,1066,1134.5347,1076,1138.5347,1072,1134.5347" style="stroke:#000000;stroke-width:1.0;"/><line style="stroke:#000000;stroke-width:1.0;stroke-dasharray:2.0,2.0;" x1="1070" x2="1294" y1="1134.5347" y2="1134.5347"/><text fill="#000000" font-family="sans-serif" font-size="13" lengthAdjust="spacing" textLength="52" x="1082" y="1129.6782">&#24322;&#27493;&#22788;&#29702;</text><polygon fill="#000000" points="837,1162.2891,827,1166.2891,837,1170.2891,833,1166.2891" style="stroke:#000000;stroke-width:1.0;"/><line style="stroke:#000000;stroke-width:1.0;stroke-dasharray:2.0,2.0;" x1="831" x2="1059" y1="1166.2891" y2="1166.2891"/><text fill="#000000" font-family="sans-serif" font-size="13" lengthAdjust="spacing" textLength="78" x="843" y="1161.4326">&#20107;&#20214;&#22788;&#29702;&#23436;&#25104;</text><polygon fill="#000000" points="530,1194.0435,520,1198.0435,530,1202.0435,526,1198.0435" style="stroke:#000000;stroke-width:1.0;"/><line style="stroke:#000000;stroke-width:1.0;" x1="524" x2="820" y1="1198.0435" y2="1198.0435"/><text fill="#000000" font-family="sans-serif" font-size="13" lengthAdjust="spacing" textLength="143" x="536" y="1193.187">&#36820;&#22238;&#19978;&#20256;&#25104;&#21151;&#30340;&#25991;&#20214;&#20449;&#24687;</text><polygon fill="#000000" points="313,1225.7979,303,1229.7979,313,1233.7979,309,1229.7979" style="stroke:#000000;stroke-width:1.0;"/><line style="stroke:#000000;stroke-width:1.0;" x1="307" x2="513" y1="1229.7979" y2="1229.7979"/><text fill="#000000" font-family="sans-serif" font-size="13" lengthAdjust="spacing" textLength="100" x="319" y="1224.9414">&#36820;&#22238;Result&lt;File&gt;</text><rect fill="#FFFFFF" height="3" style="stroke:#FFFFFF;stroke-width:1.0;" width="1475.5" x="5" y="1259.675"/><line style="stroke:#000000;stroke-width:0.5;" x1="5" x2="1480.5" y1="1259.675" y2="1259.675"/><line style="stroke:#000000;stroke-width:0.5;" x1="5" x2="1480.5" y1="1262.675" y2="1262.675"/><rect fill="#FFFFFF" height="25.7544" style="stroke:#000000;stroke-width:1.0;" width="98.4375" x="693.5313" y="1247.7979"/><text fill="#000000" font-family="sans-serif" font-size="13" font-weight="bold" lengthAdjust="spacing" textLength="80.4375" x="699.5313" y="1266.6958">&#26356;&#26032;&#30028;&#38754;&#26174;&#31034;</text><line style="stroke:#000000;stroke-width:1.0;" x1="302" x2="344" y1="1307.3066" y2="1307.3066"/><line style="stroke:#000000;stroke-width:1.0;" x1="344" x2="344" y1="1307.3066" y2="1320.3066"/><line style="stroke:#000000;stroke-width:1.0;" x1="303" x2="344" y1="1320.3066" y2="1320.3066"/><polygon fill="#000000" points="313,1316.3066,303,1320.3066,313,1324.3066,309,1320.3066" style="stroke:#000000;stroke-width:1.0;"/><text fill="#000000" font-family="sans-serif" font-size="13" lengthAdjust="spacing" textLength="78" x="309" y="1302.4502">&#26356;&#26032;&#25991;&#26723;&#21015;&#34920;</text><line style="stroke:#000000;stroke-width:1.0;" x1="302" x2="344" y1="1352.061" y2="1352.061"/><line style="stroke:#000000;stroke-width:1.0;" x1="344" x2="344" y1="1352.061" y2="1365.061"/><line style="stroke:#000000;stroke-width:1.0;" x1="303" x2="344" y1="1365.061" y2="1365.061"/><polygon fill="#000000" points="313,1361.061,303,1365.061,313,1369.061,309,1365.061" style="stroke:#000000;stroke-width:1.0;"/><text fill="#000000" font-family="sans-serif" font-size="13" lengthAdjust="spacing" textLength="91" x="309" y="1347.2046">&#26356;&#26032;&#25991;&#20214;&#22841;&#35270;&#22270;</text><polygon fill="#000000" points="81,1392.8154,71,1396.8154,81,1400.8154,77,1396.8154" style="stroke:#000000;stroke-width:1.0;"/><line style="stroke:#000000;stroke-width:1.0;" x1="75" x2="301" y1="1396.8154" y2="1396.8154"/><text fill="#000000" font-family="sans-serif" font-size="13" lengthAdjust="spacing" textLength="104" x="87" y="1391.959">&#26174;&#31034;&#19978;&#20256;&#25104;&#21151;&#25552;&#31034;</text><rect fill="#FFFFFF" height="3" style="stroke:#FFFFFF;stroke-width:1.0;" width="1475.5" x="5" y="1426.6926"/><line style="stroke:#000000;stroke-width:0.5;" x1="5" x2="1480.5" y1="1426.6926" y2="1426.6926"/><line style="stroke:#000000;stroke-width:0.5;" x1="5" x2="1480.5" y1="1429.6926" y2="1429.6926"/><rect fill="#FFFFFF" height="25.7544" style="stroke:#000000;stroke-width:1.0;" width="138.6563" x="673.4219" y="1414.8154"/><text fill="#000000" font-family="sans-serif" font-size="13" font-weight="bold" lengthAdjust="spacing" textLength="120.6563" x="679.4219" y="1433.7134">&#21487;&#36873;&#65306;&#22312;&#32447;&#32534;&#36753;&#25991;&#26723;</text><path d="M15,1457.5698 L76,1457.5698 L76,1467.3242 L66,1477.3242 L15,1477.3242 L15,1457.5698 " fill="#FFFFFF" style="stroke:#000000;stroke-width:1.0;"/><rect fill="none" height="318.5669" style="stroke:#000000;stroke-width:1.0;" width="1366.5" x="15" y="1457.5698"/><text fill="#000000" font-family="sans-serif" font-size="13" font-weight="bold" lengthAdjust="spacing" textLength="16" x="30" y="1473.4678">alt</text><text fill="#000000" font-family="sans-serif" font-size="11" font-weight="bold" lengthAdjust="spacing" textLength="98.75" x="91" y="1472.1758">[&#29992;&#25143;&#36873;&#25321;&#22312;&#32447;&#32534;&#36753;]</text><polygon fill="#000000" points="290,1497.1016,300,1501.1016,290,1505.1016,294,1501.1016" style="stroke:#000000;stroke-width:1.0;"/><line style="stroke:#000000;stroke-width:1.0;" x1="70" x2="296" y1="1501.1016" y2="1501.1016"/><text fill="#000000" font-family="sans-serif" font-size="13" lengthAdjust="spacing" textLength="104" x="77" y="1496.2451">&#36873;&#25321;&#22312;&#32447;&#32534;&#36753;&#25991;&#26723;</text><polygon fill="#000000" points="502,1528.856,512,1532.856,502,1536.856,506,1532.856" style="stroke:#000000;stroke-width:1.0;"/><line style="stroke:#000000;stroke-width:1.0;" x1="302" x2="508" y1="1532.856" y2="1532.856"/><text fill="#000000" font-family="sans-serif" font-size="13" lengthAdjust="spacing" textLength="132" x="309" y="1527.9995">POST /files/create-text</text><polygon fill="#000000" points="809,1560.6104,819,1564.6104,809,1568.6104,813,1564.6104" style="stroke:#000000;stroke-width:1.0;"/><line style="stroke:#000000;stroke-width:1.0;" x1="514" x2="815" y1="1564.6104" y2="1564.6104"/><text fill="#000000" font-family="sans-serif" font-size="13" lengthAdjust="spacing" textLength="283" x="521" y="1559.7539">createTextFile(userId, folderId, fileName, content)</text><line style="stroke:#000000;stroke-width:1.0;" x1="821" x2="863" y1="1596.3647" y2="1596.3647"/><line style="stroke:#000000;stroke-width:1.0;" x1="863" x2="863" y1="1596.3647" y2="1609.3647"/><line style="stroke:#000000;stroke-width:1.0;" x1="822" x2="863" y1="1609.3647" y2="1609.3647"/><polygon fill="#000000" points="832,1605.3647,822,1609.3647,832,1613.3647,828,1609.3647" style="stroke:#000000;stroke-width:1.0;"/><text fill="#000000" font-family="sans-serif" font-size="13" lengthAdjust="spacing" textLength="84" x="828" y="1591.5083">&#20445;&#23384;&#20026;.txt&#26684;&#24335;</text><polygon fill="#000000" points="1048,1637.1191,1058,1641.1191,1048,1645.1191,1052,1641.1191" style="stroke:#000000;stroke-width:1.0;"/><line style="stroke:#000000;stroke-width:1.0;" x1="821" x2="1054" y1="1641.1191" y2="1641.1191"/><text fill="#000000" font-family="sans-serif" font-size="13" lengthAdjust="spacing" textLength="123" x="828" y="1636.2627">onFileCreated(userId)</text><polygon fill="#000000" points="1283,1668.8735,1293,1672.8735,1283,1676.8735,1287,1672.8735" style="stroke:#000000;stroke-width:1.0;"/><line style="stroke:#000000;stroke-width:1.0;" x1="1060" x2="1289" y1="1672.8735" y2="1672.8735"/><text fill="#000000" font-family="sans-serif" font-size="13" lengthAdjust="spacing" textLength="206" x="1067" y="1668.0171">buildVectorStoreAsync(userId, true)</text><polygon fill="#000000" points="525,1700.6279,515,1704.6279,525,1708.6279,521,1704.6279" style="stroke:#000000;stroke-width:1.0;"/><line style="stroke:#000000;stroke-width:1.0;" x1="519" x2="820" y1="1704.6279" y2="1704.6279"/><text fill="#000000" font-family="sans-serif" font-size="13" lengthAdjust="spacing" textLength="91" x="531" y="1699.7715">&#36820;&#22238;&#21019;&#24314;&#30340;&#25991;&#20214;</text><polygon fill="#000000" points="313,1732.3823,303,1736.3823,313,1740.3823,309,1736.3823" style="stroke:#000000;stroke-width:1.0;"/><line style="stroke:#000000;stroke-width:1.0;" x1="307" x2="513" y1="1736.3823" y2="1736.3823"/><text fill="#000000" font-family="sans-serif" font-size="13" lengthAdjust="spacing" textLength="100" x="319" y="1731.5259">&#36820;&#22238;Result&lt;File&gt;</text><polygon fill="#000000" points="81,1764.1367,71,1768.1367,81,1772.1367,77,1768.1367" style="stroke:#000000;stroke-width:1.0;"/><line style="stroke:#000000;stroke-width:1.0;" x1="75" x2="301" y1="1768.1367" y2="1768.1367"/><text fill="#000000" font-family="sans-serif" font-size="13" lengthAdjust="spacing" textLength="78" x="87" y="1763.2803">&#26174;&#31034;&#32534;&#36753;&#25104;&#21151;</text><rect fill="#FFFFFF" height="3" style="stroke:#FFFFFF;stroke-width:1.0;" width="1475.5" x="5" y="1805.0139"/><line style="stroke:#000000;stroke-width:0.5;" x1="5" x2="1480.5" y1="1805.0139" y2="1805.0139"/><line style="stroke:#000000;stroke-width:0.5;" x1="5" x2="1480.5" y1="1808.0139" y2="1808.0139"/><rect fill="#FFFFFF" height="25.7544" style="stroke:#000000;stroke-width:1.0;" width="98.4375" x="693.5313" y="1793.1367"/><text fill="#000000" font-family="sans-serif" font-size="13" font-weight="bold" lengthAdjust="spacing" textLength="80.4375" x="699.5313" y="1812.0347">&#36864;&#20986;&#19978;&#20256;&#30028;&#38754;</text><polygon fill="#000000" points="290,1848.6455,300,1852.6455,290,1856.6455,294,1852.6455" style="stroke:#000000;stroke-width:1.0;"/><line style="stroke:#000000;stroke-width:1.0;" x1="70" x2="296" y1="1852.6455" y2="1852.6455"/><text fill="#000000" font-family="sans-serif" font-size="13" lengthAdjust="spacing" textLength="104" x="77" y="1847.7891">&#36873;&#25321;&#36864;&#20986;&#19978;&#20256;&#30028;&#38754;</text><polygon fill="#000000" points="81,1880.3999,71,1884.3999,81,1888.3999,77,1884.3999" style="stroke:#000000;stroke-width:1.0;"/><line style="stroke:#000000;stroke-width:1.0;" x1="75" x2="301" y1="1884.3999" y2="1884.3999"/><text fill="#000000" font-family="sans-serif" font-size="13" lengthAdjust="spacing" textLength="104" x="87" y="1879.5435">&#36820;&#22238;&#25991;&#26723;&#31649;&#29702;&#30028;&#38754;</text><path d="M11,1897.3999 L11,1995.3999 L1352,1995.3999 L1352,1907.3999 L1342,1897.3999 L11,1897.3999 " fill="#FFF3E0" style="stroke:#F57C00;stroke-width:1.0;"/><path d="M1342,1897.3999 L1342,1907.3999 L1352,1907.3999 L1342,1897.3999 " fill="#FFF3E0" style="stroke:#F57C00;stroke-width:1.0;"/><text fill="#000000" font-family="sans-serif" font-size="13" lengthAdjust="spacing" textLength="65" x="556.25" y="1917.2979">&#21518;&#32622;&#26465;&#20214;&#65306;</text><text fill="#000000" font-family="sans-serif" font-size="13" lengthAdjust="spacing" textLength="242" x="556.25" y="1935.0522">- &#25991;&#26723;&#25104;&#21151;&#19978;&#20256;&#33267;&#31995;&#32479;&#24182;&#26174;&#31034;&#22312;&#25991;&#26723;&#21015;&#34920;&#20013;</text><text fill="#000000" font-family="sans-serif" font-size="13" lengthAdjust="spacing" textLength="229" x="556.25" y="1952.8066">- &#21521;&#37327;&#23384;&#20648;&#24322;&#27493;&#37325;&#24314;&#65292;&#25903;&#25345;&#21518;&#32493;&#26234;&#33021;&#38382;&#31572;</text><text fill="#000000" font-family="sans-serif" font-size="13" lengthAdjust="spacing" textLength="151" x="556.25" y="1970.561">- &#25991;&#20214;&#20803;&#25968;&#25454;&#20445;&#23384;&#21040;&#25968;&#25454;&#24211;</text><text fill="#000000" font-family="sans-serif" font-size="13" lengthAdjust="spacing" textLength="151" x="556.25" y="1988.3154">- &#29289;&#29702;&#25991;&#20214;&#23384;&#20648;&#21040;&#25351;&#23450;&#36335;&#24452;</text><!--SRC=[fLTRJnj757xVNp5r7meI9BHL5CagaOZ1BL9eeW1LAlLbOWzcbMMNxgvHegeIv6QJ66mI0W6742UaaBIsaTeIi0tyc7fsrq_v2pspizYplgLIGU3TcNE-EPVld3F-p9mcCmJDAbXMfI-GKpYnZmlLmxorbg3vzUhnKskrQAKM9EEMhCvY7S-WA9d2SSKCQwhvFGRLm9WSqJL3cpBHZ_Wx8lUDopFiOqYNiO8cLJcYHGaQ6-ypi6hq6qINfm82t4qSkHNJjRWQ3McAfgFFmoFiLv20_wOSaMUnQg9V90G_bvjrHhuCNm0TTq_JeqJtrWU-kdZnyh3qgu2cQYRf11CEXxyU6MY52L-u61eO01Z9b4s5eEhXeshb5OJ8ohsnD-zNIu-hvGFhxmLh_O2MqZHx8aauOe9cmDv-wnGVseMSdNbeh-vPoGy1X0qq2M6GHBy27XWNV9QgRRt-IUqPrYBn6QAQOrZ5CSAUHbMJw5CuGdevpcWB2hDaUPSc3-Z67a24POM485MwfYX4vrh-jRO8BvReevodFaxqEVdiH671hqWpAxL4ckQVqxjxF21sTeLc_k1c_41OFCRXZupCWHzNPCCawfb1lYK_xFMXRsdXDSJD_hrOj-ewZeKK6NHyfi7gcMMm9Pjtphpn_6WuCE9krwLuOa2AfQMtdY1FIXeSHCvfbZvuozFEiuC61oKcXFelGHQ2oDueq-DdzfzbkxnDCyiVAockqvfNQNBKLGBb8BAUdzWxfNP28lRT8vee1qJM1QpKOkr9mJMEOxGOrtAAA07sySAkpIzQZz_HdKthLOLMqXmTGd5jEFpF_CBmrT0D-9YuCM7d5tlTqpo5emFHdEPeSA7guNpryBsLN0Duzk2AjlFCpXMSmWu7372VNDdQ-vHJNAWUBdDQDTpoCpY8hbqTdq3dfs3LE1-VLJGS1HVOQn2DGQ-I6QMOJX-QqXIewz5e45tHr5WlgrDv3aDBQ2eAoV_Uxj0OCKDnNGSMCPT6epszajjST3asRGPHjRmyCQqJ7BsYHR3YB7-WwJLw_9GkBd6-ZGvtEiHZSH1nLzXIJzmzec4_F35A- -q_exyalBI0pc55Ze96s4KQYaI8ORJ0-rtXUU35H7UEdC9fRRrWRTshRMIwdnK1_qt2oXxwrpLiJdi7-U5fCalB9HuLdcddGv6UtE-E7MFD0j1XmlmS9snBXN7aPftD9VyHzkgsbSpGrI9mqlCZi_GVumIBOKsVmMPFXwW0Ktdrq2SfkhDBzzFTaGqyvw9EQCEoSSkrk0-PM0T2iHWrqUXq2sBYsPpSjzyisDddRV5vlmgYct5PYJOMUff8uhMrncEBVSxfAis-P4kqy1Ak05AKj4FewkDDR90nF3jBz7Eo2ZatNJUvPXS77zopdkrRImNmr7ieFUKTUFStcbuHXqmjiGIiOJsXoGxVD0aYJMNxasufaMYTW7MF_CD7yhqokCPOyK8hpB8XuuuQgHUFgSV5YXJcaO_jbRjM_YstNlH7QiYZ_bOtk1hTkGypGao8S4gpxSqvuMEPGz122Wf216gAGvlaYisFSyIR0L1PZxRX8iIJM3tDMGl5PjBuUfE_vx59mF6k4mFQzJTCv58pWDYSsOJ8_cMjxVDfnkURCFK0aE_pwgJ9TIUtrsxJQsYx3zcbhTF8vFvPwGoik6VJT14ctCVA9dsnPvTExSgQSxBIc8HOCH7lPjwm5AJSosNhg6m5ueAVd7Qym_QRvBRfQdnYed3n2P3kCbLO- -n34K01HlJMOJkLEY_Wwc7fd7dRv8smdKxRiWovzZIgakdzxmhiO70hVRt1SqRS3W7iGCz6VaJ6U2bq6GCNpAXtPvgdYLAtwoDdGQkSZvFSY3QNHTvVj3d0Ov9zObDWPiA55BxLMLivS19OwwxrUtSiRYe_qqdywTrWZmwuEy1BiOJWYw6dB7OkiQFLBvRip7BUsYWvzuxXjc3dLnl7YfsUiyVNxxcSlVWEFFIa-JaWb4hGmgPtFO3mkb_df7y1]--></g></svg>