<?xml version="1.0" encoding="us-ascii" standalone="no"?><svg xmlns="http://www.w3.org/2000/svg" xmlns:xlink="http://www.w3.org/1999/xlink" contentStyleType="text/css" height="2419px" preserveAspectRatio="none" style="width:1670px;height:2419px;background:#FEFEFE;" version="1.1" viewBox="0 0 1670 2419" width="1670px" zoomAndPan="magnify"><defs/><g><rect fill="#FEFEFE" height="2419" style="stroke:none;stroke-width:1.0;" width="1670" x="0" y="0"/><text fill="#000000" font-family="sans-serif" font-size="22" font-weight="bold" lengthAdjust="spacing" textLength="363" x="652" y="40.2119">&#25552;&#20132;&#38382;&#39064;&#24182;&#26597;&#30475;&#22238;&#31572;&#30340;&#20107;&#20214;&#27969;&#26102;&#24207;&#22270;</text><rect fill="#FFFFFF" height="1080.1865" style="stroke:#000000;stroke-width:1.0;" width="10" x="546" y="632.7505"/><rect fill="#FFFFFF" height="926.1689" style="stroke:#000000;stroke-width:1.0;" width="10" x="924" y="755.0137"/><rect fill="#FFFFFF" height="213.3267" style="stroke:#000000;stroke-width:1.0;" width="10" x="1255" y="1124.312"/><rect fill="#FFFFFF" height="31.7544" style="stroke:#000000;stroke-width:1.0;" width="10" x="1437" y="786.7681"/><rect fill="#FFFFFF" height="31.7544" style="stroke:#000000;stroke-width:1.0;" width="10" x="1437" y="1617.6738"/><rect fill="#FFFFFF" height="31.7544" style="stroke:#000000;stroke-width:1.0;" width="10" x="1546.5" y="896.0313"/><rect fill="#FFFFFF" height="31.7544" style="stroke:#000000;stroke-width:1.0;" width="10" x="1546.5" y="1508.4106"/><rect fill="#FFFFFF" height="115.0405" style="stroke:#000000;stroke-width:1.0;" width="386.5" x="15" y="391.6924"/><rect fill="#FFFFFF" height="135.8179" style="stroke:#000000;stroke-width:1.0;" width="488" x="858.5" y="1194.8208"/><rect fill="#FFFFFF" height="66.5317" style="stroke:none;stroke-width:1.0;" width="488" x="858.5" y="1264.1069"/><rect fill="#FFFFFF" height="155.8179" style="stroke:#000000;stroke-width:1.0;" width="445" x="15" y="2035.9722"/><rect fill="#FFFFFF" height="80.5317" style="stroke:none;stroke-width:1.0;" width="445" x="15" y="2111.2583"/><line style="stroke:#000000;stroke-width:1.0;" x1="70" x2="70" y1="136.166" y2="2335.3164"/><line style="stroke:#000000;stroke-width:1.0;" x1="301.5" x2="301.5" y1="136.166" y2="2335.3164"/><line style="stroke:#000000;stroke-width:1.0;" x1="551" x2="551" y1="136.166" y2="2335.3164"/><line style="stroke:#000000;stroke-width:1.0;" x1="928.5" x2="928.5" y1="136.166" y2="2335.3164"/><line style="stroke:#000000;stroke-width:1.0;" x1="1259.5" x2="1259.5" y1="136.166" y2="2335.3164"/><line style="stroke:#000000;stroke-width:1.0;" x1="1442" x2="1442" y1="136.166" y2="2335.3164"/><line style="stroke:#000000;stroke-width:1.0;" x1="1551" x2="1551" y1="136.166" y2="2335.3164"/><line style="stroke:#000000;stroke-width:1.0;" x1="1635" x2="1635" y1="136.166" y2="2335.3164"/><text fill="#000000" font-family="sans-serif" font-size="14" lengthAdjust="spacing" textLength="84" x="25" y="133.0898">&#30693;&#35782;&#31649;&#29702;&#29992;&#25143;</text><ellipse cx="70" cy="65.0459" fill="#FFFFFF" rx="8" ry="8" style="stroke:#000000;stroke-width:1.0;"/><path d="M70,73.0459 L70,100.0459 M57,81.0459 L83,81.0459 M70,100.0459 L57,115.0459 M70,100.0459 L83,115.0459 " fill="none" style="stroke:#000000;stroke-width:1.0;"/><text fill="#000000" font-family="sans-serif" font-size="14" lengthAdjust="spacing" textLength="84" x="25" y="2350.3604">&#30693;&#35782;&#31649;&#29702;&#29992;&#25143;</text><ellipse cx="70" cy="2362.4365" fill="#FFFFFF" rx="8" ry="8" style="stroke:#000000;stroke-width:1.0;"/><path d="M70,2370.4365 L70,2397.4365 M57,2378.4365 L83,2378.4365 M70,2397.4365 L57,2412.4365 M70,2397.4365 L83,2412.4365 " fill="none" style="stroke:#000000;stroke-width:1.0;"/><rect fill="#E8F5E8" height="52.2402" rx="2.5" ry="2.5" style="stroke:#2E7D32;stroke-width:1.0;" width="159" x="222.5" y="82.9258"/><text fill="#000000" font-family="sans-serif" font-size="14" lengthAdjust="spacing" textLength="84" x="260" y="105.9697">&#26234;&#33021;&#38382;&#31572;&#30028;&#38754;</text><text fill="#000000" font-family="sans-serif" font-size="14" lengthAdjust="spacing" textLength="145" x="229.5" y="125.0898">(IntelligentQAInterface)</text><rect fill="#E8F5E8" height="52.2402" rx="2.5" ry="2.5" style="stroke:#2E7D32;stroke-width:1.0;" width="159" x="222.5" y="2334.3164"/><text fill="#000000" font-family="sans-serif" font-size="14" lengthAdjust="spacing" textLength="84" x="260" y="2357.3604">&#26234;&#33021;&#38382;&#31572;&#30028;&#38754;</text><text fill="#000000" font-family="sans-serif" font-size="14" lengthAdjust="spacing" textLength="145" x="229.5" y="2376.4805">(IntelligentQAInterface)</text><rect fill="#E8F5E8" height="52.2402" rx="2.5" ry="2.5" style="stroke:#2E7D32;stroke-width:1.0;" width="116" x="493" y="82.9258"/><text fill="#000000" font-family="sans-serif" font-size="14" lengthAdjust="spacing" textLength="70" x="516" y="105.9697">&#32842;&#22825;&#25511;&#21046;&#22120;</text><text fill="#000000" font-family="sans-serif" font-size="14" lengthAdjust="spacing" textLength="102" x="500" y="125.0898">(ChatController)</text><rect fill="#E8F5E8" height="52.2402" rx="2.5" ry="2.5" style="stroke:#2E7D32;stroke-width:1.0;" width="116" x="493" y="2334.3164"/><text fill="#000000" font-family="sans-serif" font-size="14" lengthAdjust="spacing" textLength="70" x="516" y="2357.3604">&#32842;&#22825;&#25511;&#21046;&#22120;</text><text fill="#000000" font-family="sans-serif" font-size="14" lengthAdjust="spacing" textLength="102" x="500" y="2376.4805">(ChatController)</text><rect fill="#E8F5E8" height="52.2402" rx="2.5" ry="2.5" style="stroke:#2E7D32;stroke-width:1.0;" width="101" x="878.5" y="82.9258"/><text fill="#000000" font-family="sans-serif" font-size="14" lengthAdjust="spacing" textLength="56" x="901" y="105.9697">&#32842;&#22825;&#26381;&#21153;</text><text fill="#000000" font-family="sans-serif" font-size="14" lengthAdjust="spacing" textLength="87" x="885.5" y="125.0898">(ChatService)</text><rect fill="#E8F5E8" height="52.2402" rx="2.5" ry="2.5" style="stroke:#2E7D32;stroke-width:1.0;" width="101" x="878.5" y="2334.3164"/><text fill="#000000" font-family="sans-serif" font-size="14" lengthAdjust="spacing" textLength="56" x="901" y="2357.3604">&#32842;&#22825;&#26381;&#21153;</text><text fill="#000000" font-family="sans-serif" font-size="14" lengthAdjust="spacing" textLength="87" x="885.5" y="2376.4805">(ChatService)</text><rect fill="#E8F5E8" height="52.2402" rx="2.5" ry="2.5" style="stroke:#2E7D32;stroke-width:1.0;" width="133" x="1193.5" y="82.9258"/><text fill="#000000" font-family="sans-serif" font-size="14" lengthAdjust="spacing" textLength="114" x="1203" y="105.9697">RAG&#26234;&#33021;&#38382;&#31572;&#31995;&#32479;</text><text fill="#000000" font-family="sans-serif" font-size="14" lengthAdjust="spacing" textLength="119" x="1200.5" y="125.0898">(RagClientService)</text><rect fill="#E8F5E8" height="52.2402" rx="2.5" ry="2.5" style="stroke:#2E7D32;stroke-width:1.0;" width="133" x="1193.5" y="2334.3164"/><text fill="#000000" font-family="sans-serif" font-size="14" lengthAdjust="spacing" textLength="114" x="1203" y="2357.3604">RAG&#26234;&#33021;&#38382;&#31572;&#31995;&#32479;</text><text fill="#000000" font-family="sans-serif" font-size="14" lengthAdjust="spacing" textLength="119" x="1200.5" y="2376.4805">(RagClientService)</text><text fill="#000000" font-family="sans-serif" font-size="14" lengthAdjust="spacing" textLength="56" x="1411" y="113.9697">&#32842;&#22825;&#20250;&#35805;</text><text fill="#000000" font-family="sans-serif" font-size="14" lengthAdjust="spacing" textLength="90" x="1394" y="133.0898">(ChatSession)</text><ellipse cx="1442" cy="81.9258" fill="#FFFFFF" rx="12" ry="12" style="stroke:#000000;stroke-width:1.0;"/><line style="stroke:#000000;stroke-width:1.0;" x1="1430" x2="1454" y1="95.9258" y2="95.9258"/><text fill="#000000" font-family="sans-serif" font-size="14" lengthAdjust="spacing" textLength="56" x="1411" y="2350.3604">&#32842;&#22825;&#20250;&#35805;</text><text fill="#000000" font-family="sans-serif" font-size="14" lengthAdjust="spacing" textLength="90" x="1394" y="2369.4805">(ChatSession)</text><ellipse cx="1442" cy="2388.5566" fill="#FFFFFF" rx="12" ry="12" style="stroke:#000000;stroke-width:1.0;"/><line style="stroke:#000000;stroke-width:1.0;" x1="1430" x2="1454" y1="2402.5566" y2="2402.5566"/><text fill="#000000" font-family="sans-serif" font-size="14" lengthAdjust="spacing" textLength="56" x="1520.5" y="113.9697">&#32842;&#22825;&#28040;&#24687;</text><text fill="#000000" font-family="sans-serif" font-size="14" lengthAdjust="spacing" textLength="97" x="1500" y="133.0898">(ChatMessage)</text><ellipse cx="1551.5" cy="81.9258" fill="#FFFFFF" rx="12" ry="12" style="stroke:#000000;stroke-width:1.0;"/><line style="stroke:#000000;stroke-width:1.0;" x1="1539.5" x2="1563.5" y1="95.9258" y2="95.9258"/><text fill="#000000" font-family="sans-serif" font-size="14" lengthAdjust="spacing" textLength="56" x="1520.5" y="2350.3604">&#32842;&#22825;&#28040;&#24687;</text><text fill="#000000" font-family="sans-serif" font-size="14" lengthAdjust="spacing" textLength="97" x="1500" y="2369.4805">(ChatMessage)</text><ellipse cx="1551.5" cy="2388.5566" fill="#FFFFFF" rx="12" ry="12" style="stroke:#000000;stroke-width:1.0;"/><line style="stroke:#000000;stroke-width:1.0;" x1="1539.5" x2="1563.5" y1="2402.5566" y2="2402.5566"/><text fill="#000000" font-family="sans-serif" font-size="14" lengthAdjust="spacing" textLength="28" x="1618.5" y="113.9697">&#29992;&#25143;</text><text fill="#000000" font-family="sans-serif" font-size="14" lengthAdjust="spacing" textLength="39" x="1613" y="133.0898">(User)</text><ellipse cx="1635.5" cy="81.9258" fill="#FFFFFF" rx="12" ry="12" style="stroke:#000000;stroke-width:1.0;"/><line style="stroke:#000000;stroke-width:1.0;" x1="1623.5" x2="1647.5" y1="95.9258" y2="95.9258"/><text fill="#000000" font-family="sans-serif" font-size="14" lengthAdjust="spacing" textLength="28" x="1618.5" y="2350.3604">&#29992;&#25143;</text><text fill="#000000" font-family="sans-serif" font-size="14" lengthAdjust="spacing" textLength="39" x="1613" y="2369.4805">(User)</text><ellipse cx="1635.5" cy="2388.5566" fill="#FFFFFF" rx="12" ry="12" style="stroke:#000000;stroke-width:1.0;"/><line style="stroke:#000000;stroke-width:1.0;" x1="1623.5" x2="1647.5" y1="2402.5566" y2="2402.5566"/><rect fill="#FFFFFF" height="1080.1865" style="stroke:#000000;stroke-width:1.0;" width="10" x="546" y="632.7505"/><rect fill="#FFFFFF" height="926.1689" style="stroke:#000000;stroke-width:1.0;" width="10" x="924" y="755.0137"/><rect fill="#FFFFFF" height="213.3267" style="stroke:#000000;stroke-width:1.0;" width="10" x="1255" y="1124.312"/><rect fill="#FFFFFF" height="31.7544" style="stroke:#000000;stroke-width:1.0;" width="10" x="1437" y="786.7681"/><rect fill="#FFFFFF" height="31.7544" style="stroke:#000000;stroke-width:1.0;" width="10" x="1437" y="1617.6738"/><rect fill="#FFFFFF" height="31.7544" style="stroke:#000000;stroke-width:1.0;" width="10" x="1546.5" y="896.0313"/><rect fill="#FFFFFF" height="31.7544" style="stroke:#000000;stroke-width:1.0;" width="10" x="1546.5" y="1508.4106"/><rect fill="#FFFFFF" height="3" style="stroke:#FFFFFF;stroke-width:1.0;" width="1658" x="5" y="168.0432"/><line style="stroke:#000000;stroke-width:0.5;" x1="5" x2="1663" y1="168.0432" y2="168.0432"/><line style="stroke:#000000;stroke-width:0.5;" x1="5" x2="1663" y1="171.0432" y2="171.0432"/><rect fill="#FFFFFF" height="25.7544" style="stroke:#000000;stroke-width:1.0;" width="98.4375" x="784.7813" y="156.166"/><text fill="#000000" font-family="sans-serif" font-size="13" font-weight="bold" lengthAdjust="spacing" textLength="80.4375" x="790.7813" y="175.064">&#36827;&#20837;&#38382;&#31572;&#30028;&#38754;</text><polygon fill="#000000" points="290,211.6748,300,215.6748,290,219.6748,294,215.6748" style="stroke:#000000;stroke-width:1.0;"/><line style="stroke:#000000;stroke-width:1.0;" x1="70" x2="296" y1="215.6748" y2="215.6748"/><text fill="#000000" font-family="sans-serif" font-size="13" lengthAdjust="spacing" textLength="156" x="77" y="210.8184">&#30331;&#24405;&#31995;&#32479;&#21518;&#65292;&#36827;&#20837;&#38382;&#31572;&#30028;&#38754;</text><polygon fill="#000000" points="81,243.4292,71,247.4292,81,251.4292,77,247.4292" style="stroke:#000000;stroke-width:1.0;"/><line style="stroke:#000000;stroke-width:1.0;" x1="75" x2="301" y1="247.4292" y2="247.4292"/><text fill="#000000" font-family="sans-serif" font-size="13" lengthAdjust="spacing" textLength="169" x="87" y="242.5728">&#26174;&#31034;&#38382;&#31572;&#30028;&#38754;&#21644;&#21382;&#21490;&#20250;&#35805;&#21015;&#34920;</text><rect fill="#FFFFFF" height="3" style="stroke:#FFFFFF;stroke-width:1.0;" width="1658" x="5" y="277.3064"/><line style="stroke:#000000;stroke-width:0.5;" x1="5" x2="1663" y1="277.3064" y2="277.3064"/><line style="stroke:#000000;stroke-width:0.5;" x1="5" x2="1663" y1="280.3064" y2="280.3064"/><rect fill="#FFFFFF" height="25.7544" style="stroke:#000000;stroke-width:1.0;" width="71.625" x="798.1875" y="265.4292"/><text fill="#000000" font-family="sans-serif" font-size="13" font-weight="bold" lengthAdjust="spacing" textLength="53.625" x="804.1875" y="284.3271">&#36755;&#20837;&#38382;&#39064;</text><polygon fill="#000000" points="290,323.938,300,327.938,290,331.938,294,327.938" style="stroke:#000000;stroke-width:1.0;"/><line style="stroke:#000000;stroke-width:1.0;" x1="70" x2="296" y1="327.938" y2="327.938"/><text fill="#000000" font-family="sans-serif" font-size="13" lengthAdjust="spacing" textLength="104" x="77" y="323.0815">&#36755;&#20837;&#33258;&#28982;&#35821;&#35328;&#38382;&#39064;</text><path d="M307,306.1836 L307,333.1836 L588,333.1836 L588,316.1836 L578,306.1836 L307,306.1836 " fill="#FFF8E1" style="stroke:#F57F17;stroke-width:1.0;"/><path d="M578,306.1836 L578,316.1836 L588,316.1836 L578,306.1836 " fill="#FFF8E1" style="stroke:#F57F17;stroke-width:1.0;"/><text fill="#000000" font-family="sans-serif" font-size="13" lengthAdjust="spacing" textLength="260" x="313" y="326.0815">&#29992;&#25143;&#21487;&#22312;&#38382;&#39064;&#36755;&#20837;&#26694;&#20013;&#36755;&#20837;&#20219;&#24847;&#33258;&#28982;&#35821;&#35328;&#38382;&#39064;</text><rect fill="#FFFFFF" height="3" style="stroke:#FFFFFF;stroke-width:1.0;" width="1658" x="5" y="360.8152"/><line style="stroke:#000000;stroke-width:0.5;" x1="5" x2="1663" y1="360.8152" y2="360.8152"/><line style="stroke:#000000;stroke-width:0.5;" x1="5" x2="1663" y1="363.8152" y2="363.8152"/><rect fill="#FFFFFF" height="25.7544" style="stroke:#000000;stroke-width:1.0;" width="138.6563" x="764.6719" y="348.938"/><text fill="#000000" font-family="sans-serif" font-size="13" font-weight="bold" lengthAdjust="spacing" textLength="120.6563" x="770.6719" y="367.8359">&#21487;&#36873;&#65306;&#25351;&#23450;&#25991;&#26723;&#33539;&#22260;</text><path d="M15,391.6924 L76,391.6924 L76,401.4468 L66,411.4468 L15,411.4468 L15,391.6924 " fill="#FFFFFF" style="stroke:#000000;stroke-width:1.0;"/><rect fill="none" height="115.0405" style="stroke:#000000;stroke-width:1.0;" width="386.5" x="15" y="391.6924"/><text fill="#000000" font-family="sans-serif" font-size="13" font-weight="bold" lengthAdjust="spacing" textLength="16" x="30" y="407.5903">alt</text><text fill="#000000" font-family="sans-serif" font-size="11" font-weight="bold" lengthAdjust="spacing" textLength="144.125" x="91" y="406.2983">[&#29992;&#25143;&#36873;&#25321;&#25351;&#23450;&#25991;&#26723;&#25110;&#25991;&#20214;&#22841;]</text><polygon fill="#000000" points="290,431.2241,300,435.2241,290,439.2241,294,435.2241" style="stroke:#000000;stroke-width:1.0;"/><line style="stroke:#000000;stroke-width:1.0;" x1="70" x2="296" y1="435.2241" y2="435.2241"/><text fill="#000000" font-family="sans-serif" font-size="13" lengthAdjust="spacing" textLength="208" x="77" y="430.3677">&#36873;&#25321;&#25351;&#23450;&#25991;&#26723;&#25110;&#25991;&#20214;&#22841;&#20316;&#20026;&#22238;&#31572;&#33539;&#22260;</text><polygon fill="#000000" points="81,462.9785,71,466.9785,81,470.9785,77,466.9785" style="stroke:#000000;stroke-width:1.0;"/><line style="stroke:#000000;stroke-width:1.0;" x1="75" x2="301" y1="466.9785" y2="466.9785"/><text fill="#000000" font-family="sans-serif" font-size="13" lengthAdjust="spacing" textLength="173" x="87" y="462.1221">&#26174;&#31034;&#24050;&#36873;&#25321;&#30340;&#25991;&#26723;/&#25991;&#20214;&#22841;&#21015;&#34920;</text><polygon fill="#000000" points="290,494.7329,300,498.7329,290,502.7329,294,498.7329" style="stroke:#000000;stroke-width:1.0;"/><line style="stroke:#000000;stroke-width:1.0;" x1="70" x2="296" y1="498.7329" y2="498.7329"/><text fill="#000000" font-family="sans-serif" font-size="13" lengthAdjust="spacing" textLength="62" x="77" y="493.8765">&#28857;&#20987;"&#25552;&#20132;"</text><rect fill="#FFFFFF" height="3" style="stroke:#FFFFFF;stroke-width:1.0;" width="1658" x="5" y="535.6101"/><line style="stroke:#000000;stroke-width:0.5;" x1="5" x2="1663" y1="535.6101" y2="535.6101"/><line style="stroke:#000000;stroke-width:0.5;" x1="5" x2="1663" y1="538.6101" y2="538.6101"/><rect fill="#FFFFFF" height="25.7544" style="stroke:#000000;stroke-width:1.0;" width="71.625" x="798.1875" y="523.7329"/><text fill="#000000" font-family="sans-serif" font-size="13" font-weight="bold" lengthAdjust="spacing" textLength="53.625" x="804.1875" y="542.6309">&#25552;&#20132;&#38382;&#39064;</text><polygon fill="#000000" points="290,579.2417,300,583.2417,290,587.2417,294,583.2417" style="stroke:#000000;stroke-width:1.0;"/><line style="stroke:#000000;stroke-width:1.0;" x1="70" x2="296" y1="583.2417" y2="583.2417"/><text fill="#000000" font-family="sans-serif" font-size="13" lengthAdjust="spacing" textLength="156" x="77" y="578.3853">&#28857;&#20987;&#21457;&#36865;&#25110;&#25353;&#22238;&#36710;&#25552;&#20132;&#38382;&#39064;</text><polygon fill="#000000" points="534,628.7505,544,632.7505,534,636.7505,538,632.7505" style="stroke:#000000;stroke-width:1.0;"/><line style="stroke:#000000;stroke-width:1.0;" x1="302" x2="540" y1="632.7505" y2="632.7505"/><text fill="#000000" font-family="sans-serif" font-size="13" lengthAdjust="spacing" textLength="132" x="309" y="610.1396">POST /chat/messages</text><text fill="#000000" font-family="sans-serif" font-size="13" lengthAdjust="spacing" textLength="225" x="309" y="627.894">(sessionId, content, fileIds?, folderIds?)</text><line style="stroke:#000000;stroke-width:1.0;" x1="556" x2="598" y1="664.5049" y2="664.5049"/><line style="stroke:#000000;stroke-width:1.0;" x1="598" x2="598" y1="664.5049" y2="677.5049"/><line style="stroke:#000000;stroke-width:1.0;" x1="557" x2="598" y1="677.5049" y2="677.5049"/><polygon fill="#000000" points="567,673.5049,557,677.5049,567,681.5049,563,677.5049" style="stroke:#000000;stroke-width:1.0;"/><text fill="#000000" font-family="sans-serif" font-size="13" lengthAdjust="spacing" textLength="105" x="563" y="659.6484">getCurrentUserId()</text><path d="M680,649.2505 L680,676.2505 L874,676.2505 L874,659.2505 L864,649.2505 L680,649.2505 " fill="#FFF8E1" style="stroke:#F57F17;stroke-width:1.0;"/><path d="M864,649.2505 L864,659.2505 L874,659.2505 L864,649.2505 " fill="#FFF8E1" style="stroke:#F57F17;stroke-width:1.0;"/><text fill="#000000" font-family="sans-serif" font-size="13" lengthAdjust="spacing" textLength="173" x="686" y="669.1484">&#20174;ThreadLocal&#33719;&#21462;&#24403;&#21069;&#29992;&#25143;ID</text><rect fill="#FFFFFF" height="3" style="stroke:#FFFFFF;stroke-width:1.0;" width="1658" x="5" y="707.3821"/><line style="stroke:#000000;stroke-width:0.5;" x1="5" x2="1663" y1="707.3821" y2="707.3821"/><line style="stroke:#000000;stroke-width:0.5;" x1="5" x2="1663" y1="710.3821" y2="710.3821"/><rect fill="#FFFFFF" height="25.7544" style="stroke:#000000;stroke-width:1.0;" width="71.625" x="798.1875" y="695.5049"/><text fill="#000000" font-family="sans-serif" font-size="13" font-weight="bold" lengthAdjust="spacing" textLength="53.625" x="804.1875" y="714.4028">&#39564;&#35777;&#20250;&#35805;</text><polygon fill="#000000" points="912,751.0137,922,755.0137,912,759.0137,916,755.0137" style="stroke:#000000;stroke-width:1.0;"/><line style="stroke:#000000;stroke-width:1.0;" x1="556" x2="918" y1="755.0137" y2="755.0137"/><text fill="#000000" font-family="sans-serif" font-size="13" lengthAdjust="spacing" textLength="349" x="563" y="750.1572">sendMessage(sessionId, userId, content, fileIds?, folderIds?)</text><polygon fill="#000000" points="1425,782.7681,1435,786.7681,1425,790.7681,1429,786.7681" style="stroke:#000000;stroke-width:1.0;"/><line style="stroke:#000000;stroke-width:1.0;" x1="934" x2="1431" y1="786.7681" y2="786.7681"/><text fill="#000000" font-family="sans-serif" font-size="13" lengthAdjust="spacing" textLength="196" x="941" y="781.9116">validateSession(sessionId, userId)</text><polygon fill="#000000" points="945,814.5225,935,818.5225,945,822.5225,941,818.5225" style="stroke:#000000;stroke-width:1.0;"/><line style="stroke:#000000;stroke-width:1.0;" x1="939" x2="1441" y1="818.5225" y2="818.5225"/><text fill="#000000" font-family="sans-serif" font-size="13" lengthAdjust="spacing" textLength="104" x="951" y="813.666">&#39564;&#35777;&#20250;&#35805;&#24402;&#23646;&#26435;&#38480;</text><rect fill="#FFFFFF" height="3" style="stroke:#FFFFFF;stroke-width:1.0;" width="1658" x="5" y="848.3997"/><line style="stroke:#000000;stroke-width:0.5;" x1="5" x2="1663" y1="848.3997" y2="848.3997"/><line style="stroke:#000000;stroke-width:0.5;" x1="5" x2="1663" y1="851.3997" y2="851.3997"/><rect fill="#FFFFFF" height="25.7544" style="stroke:#000000;stroke-width:1.0;" width="98.4375" x="784.7813" y="836.5225"/><text fill="#000000" font-family="sans-serif" font-size="13" font-weight="bold" lengthAdjust="spacing" textLength="80.4375" x="790.7813" y="855.4204">&#20445;&#23384;&#29992;&#25143;&#28040;&#24687;</text><polygon fill="#000000" points="1534.5,892.0313,1544.5,896.0313,1534.5,900.0313,1538.5,896.0313" style="stroke:#000000;stroke-width:1.0;"/><line style="stroke:#000000;stroke-width:1.0;" x1="934" x2="1540.5" y1="896.0313" y2="896.0313"/><text fill="#000000" font-family="sans-serif" font-size="13" lengthAdjust="spacing" textLength="279" x="941" y="891.1748">saveMessage(sessionId, userId, content, "user")</text><polygon fill="#000000" points="945,923.7856,935,927.7856,945,931.7856,941,927.7856" style="stroke:#000000;stroke-width:1.0;"/><line style="stroke:#000000;stroke-width:1.0;" x1="939" x2="1550.5" y1="927.7856" y2="927.7856"/><text fill="#000000" font-family="sans-serif" font-size="13" lengthAdjust="spacing" textLength="104" x="951" y="922.9292">&#36820;&#22238;&#29992;&#25143;&#28040;&#24687;&#35760;&#24405;</text><rect fill="#FFFFFF" height="3" style="stroke:#FFFFFF;stroke-width:1.0;" width="1658" x="5" y="957.6628"/><line style="stroke:#000000;stroke-width:0.5;" x1="5" x2="1663" y1="957.6628" y2="957.6628"/><line style="stroke:#000000;stroke-width:0.5;" x1="5" x2="1663" y1="960.6628" y2="960.6628"/><rect fill="#FFFFFF" height="25.7544" style="stroke:#000000;stroke-width:1.0;" width="98.4375" x="784.7813" y="945.7856"/><text fill="#000000" font-family="sans-serif" font-size="13" font-weight="bold" lengthAdjust="spacing" textLength="80.4375" x="790.7813" y="964.6836">&#25910;&#38598;&#25991;&#26723;&#36335;&#24452;</text><line style="stroke:#000000;stroke-width:1.0;" x1="934" x2="976" y1="1010.6716" y2="1010.6716"/><line style="stroke:#000000;stroke-width:1.0;" x1="976" x2="976" y1="1010.6716" y2="1023.6716"/><line style="stroke:#000000;stroke-width:1.0;" x1="935" x2="976" y1="1023.6716" y2="1023.6716"/><polygon fill="#000000" points="945,1019.6716,935,1023.6716,945,1027.6716,941,1023.6716" style="stroke:#000000;stroke-width:1.0;"/><text fill="#000000" font-family="sans-serif" font-size="13" lengthAdjust="spacing" textLength="271" x="941" y="1005.8152">collectDocumentPaths(userId, fileIds, folderIds)</text><path d="M1224,986.54 L1224,1031.54 L1400,1031.54 L1400,996.54 L1390,986.54 L1224,986.54 " fill="#FFF8E1" style="stroke:#F57F17;stroke-width:1.0;"/><path d="M1390,986.54 L1390,996.54 L1400,996.54 L1390,986.54 " fill="#FFF8E1" style="stroke:#F57F17;stroke-width:1.0;"/><text fill="#000000" font-family="sans-serif" font-size="13" lengthAdjust="spacing" textLength="155" x="1230" y="1006.438">&#26681;&#25454;&#25351;&#23450;&#30340;&#25991;&#20214;&#21644;&#25991;&#20214;&#22841;ID</text><text fill="#000000" font-family="sans-serif" font-size="13" lengthAdjust="spacing" textLength="130" x="1230" y="1024.1924">&#25910;&#38598;&#25152;&#26377;&#30456;&#20851;&#25991;&#26723;&#36335;&#24452;</text><rect fill="#FFFFFF" height="3" style="stroke:#FFFFFF;stroke-width:1.0;" width="1658" x="5" y="1058.926"/><line style="stroke:#000000;stroke-width:0.5;" x1="5" x2="1663" y1="1058.926" y2="1058.926"/><line style="stroke:#000000;stroke-width:0.5;" x1="5" x2="1663" y1="1061.926" y2="1061.926"/><rect fill="#FFFFFF" height="25.7544" style="stroke:#000000;stroke-width:1.0;" width="99.625" x="784.1875" y="1047.0488"/><text fill="#000000" font-family="sans-serif" font-size="13" font-weight="bold" lengthAdjust="spacing" textLength="81.625" x="790.1875" y="1065.9468">&#35843;&#29992;RAG&#31995;&#32479;</text><polygon fill="#000000" points="1243,1120.312,1253,1124.312,1243,1128.312,1247,1124.312" style="stroke:#000000;stroke-width:1.0;"/><line style="stroke:#000000;stroke-width:1.0;" x1="934" x2="1249" y1="1124.312" y2="1124.312"/><text fill="#000000" font-family="sans-serif" font-size="13" lengthAdjust="spacing" textLength="68" x="941" y="1101.7012">POST /chat</text><text fill="#000000" font-family="sans-serif" font-size="13" lengthAdjust="spacing" textLength="302" x="941" y="1119.4556">{message, document_path, conversation_id, history}</text><line style="stroke:#000000;stroke-width:1.0;" x1="1265" x2="1307" y1="1161.4436" y2="1161.4436"/><line style="stroke:#000000;stroke-width:1.0;" x1="1307" x2="1307" y1="1161.4436" y2="1174.4436"/><line style="stroke:#000000;stroke-width:1.0;" x1="1266" x2="1307" y1="1174.4436" y2="1174.4436"/><polygon fill="#000000" points="1276,1170.4436,1266,1174.4436,1276,1178.4436,1272,1174.4436" style="stroke:#000000;stroke-width:1.0;"/><text fill="#000000" font-family="sans-serif" font-size="13" lengthAdjust="spacing" textLength="158" x="1272" y="1156.5872">&#22522;&#20110;RAG&#25216;&#26415;&#26816;&#32034;&#30456;&#20851;&#20869;&#23481;</text><path d="M1442,1137.312 L1442,1182.312 L1619,1182.312 L1619,1147.312 L1609,1137.312 L1442,1137.312 " fill="#FFF8E1" style="stroke:#F57F17;stroke-width:1.0;"/><path d="M1609,1137.312 L1609,1147.312 L1619,1147.312 L1609,1137.312 " fill="#FFF8E1" style="stroke:#F57F17;stroke-width:1.0;"/><text fill="#000000" font-family="sans-serif" font-size="13" lengthAdjust="spacing" textLength="156" x="1448" y="1157.21">&#20174;&#25351;&#23450;&#25991;&#26723;&#20013;&#26816;&#32034;&#30456;&#20851;&#20869;&#23481;</text><text fill="#000000" font-family="sans-serif" font-size="13" lengthAdjust="spacing" textLength="143" x="1448" y="1174.9644">&#29983;&#25104;&#26234;&#33021;&#22238;&#31572;&#21644;&#24341;&#29992;&#26469;&#28304;</text><path d="M858.5,1194.8208 L919.5,1194.8208 L919.5,1204.5752 L909.5,1214.5752 L858.5,1214.5752 L858.5,1194.8208 " fill="#FFFFFF" style="stroke:#000000;stroke-width:1.0;"/><rect fill="none" height="135.8179" style="stroke:#000000;stroke-width:1.0;" width="488" x="858.5" y="1194.8208"/><text fill="#000000" font-family="sans-serif" font-size="13" font-weight="bold" lengthAdjust="spacing" textLength="16" x="873.5" y="1210.7188">alt</text><text fill="#000000" font-family="sans-serif" font-size="11" font-weight="bold" lengthAdjust="spacing" textLength="76.0625" x="934.5" y="1209.4268">[&#25214;&#21040;&#30456;&#20851;&#25991;&#26723;]</text><polygon fill="#000000" points="945,1252.1069,935,1256.1069,945,1260.1069,941,1256.1069" style="stroke:#000000;stroke-width:1.0;"/><line style="stroke:#000000;stroke-width:1.0;" x1="939" x2="1254" y1="1256.1069" y2="1256.1069"/><text fill="#000000" font-family="sans-serif" font-size="13" lengthAdjust="spacing" textLength="143" x="951" y="1233.4961">&#36820;&#22238;&#26234;&#33021;&#22238;&#31572;&#21644;&#24341;&#29992;&#26469;&#28304;</text><text fill="#000000" font-family="sans-serif" font-size="13" lengthAdjust="spacing" textLength="217" x="951" y="1251.2505">{answer, sources: [{source, content}]}</text><line style="stroke:#000000;stroke-width:1.0;stroke-dasharray:2.0,2.0;" x1="858.5" x2="1346.5" y1="1265.1069" y2="1265.1069"/><text fill="#000000" font-family="sans-serif" font-size="11" font-weight="bold" lengthAdjust="spacing" textLength="87.4063" x="863.5" y="1277.7129">[&#26410;&#25214;&#21040;&#30456;&#20851;&#25991;&#26723;]</text><polygon fill="#000000" points="945,1318.6387,935,1322.6387,945,1326.6387,941,1322.6387" style="stroke:#000000;stroke-width:1.0;"/><line style="stroke:#000000;stroke-width:1.0;" x1="939" x2="1254" y1="1322.6387" y2="1322.6387"/><text fill="#000000" font-family="sans-serif" font-size="13" lengthAdjust="spacing" textLength="78" x="951" y="1300.0278">&#36820;&#22238;&#38169;&#35823;&#25552;&#31034;</text><text fill="#000000" font-family="sans-serif" font-size="13" lengthAdjust="spacing" textLength="270" x="951" y="1317.7822">"&#26410;&#25214;&#21040;&#30456;&#20851;&#20869;&#23481;&#65292;&#35831;&#26816;&#26597;&#38382;&#39064;&#25110;&#19978;&#20256;&#26356;&#22810;&#25991;&#26723;"</text><rect fill="#FFFFFF" height="3" style="stroke:#FFFFFF;stroke-width:1.0;" width="1658" x="5" y="1359.5159"/><line style="stroke:#000000;stroke-width:0.5;" x1="5" x2="1663" y1="1359.5159" y2="1359.5159"/><line style="stroke:#000000;stroke-width:0.5;" x1="5" x2="1663" y1="1362.5159" y2="1362.5159"/><rect fill="#FFFFFF" height="25.7544" style="stroke:#000000;stroke-width:1.0;" width="98.4375" x="784.7813" y="1347.6387"/><text fill="#000000" font-family="sans-serif" font-size="13" font-weight="bold" lengthAdjust="spacing" textLength="80.4375" x="790.7813" y="1366.5366">&#22788;&#29702;&#22238;&#31572;&#20869;&#23481;</text><line style="stroke:#000000;stroke-width:1.0;" x1="934" x2="976" y1="1412.5247" y2="1412.5247"/><line style="stroke:#000000;stroke-width:1.0;" x1="976" x2="976" y1="1412.5247" y2="1425.5247"/><line style="stroke:#000000;stroke-width:1.0;" x1="935" x2="976" y1="1425.5247" y2="1425.5247"/><polygon fill="#000000" points="945,1421.5247,935,1425.5247,945,1429.5247,941,1425.5247" style="stroke:#000000;stroke-width:1.0;"/><text fill="#000000" font-family="sans-serif" font-size="13" lengthAdjust="spacing" textLength="254" x="941" y="1407.6682">processRagResponse(userId, ragResponse)</text><path d="M1207,1388.3931 L1207,1433.3931 L1384,1433.3931 L1384,1398.3931 L1374,1388.3931 L1207,1388.3931 " fill="#FFF8E1" style="stroke:#F57F17;stroke-width:1.0;"/><path d="M1374,1388.3931 L1374,1398.3931 L1384,1398.3931 L1374,1388.3931 " fill="#FFF8E1" style="stroke:#F57F17;stroke-width:1.0;"/><text fill="#000000" font-family="sans-serif" font-size="13" lengthAdjust="spacing" textLength="156" x="1213" y="1408.291">&#23558;&#29289;&#29702;&#36335;&#24452;&#36716;&#25442;&#20026;&#36923;&#36753;&#36335;&#24452;</text><text fill="#000000" font-family="sans-serif" font-size="13" lengthAdjust="spacing" textLength="78" x="1213" y="1426.0454">&#20415;&#20110;&#21069;&#31471;&#26174;&#31034;</text><rect fill="#FFFFFF" height="3" style="stroke:#FFFFFF;stroke-width:1.0;" width="1658" x="5" y="1460.7791"/><line style="stroke:#000000;stroke-width:0.5;" x1="5" x2="1663" y1="1460.7791" y2="1460.7791"/><line style="stroke:#000000;stroke-width:0.5;" x1="5" x2="1663" y1="1463.7791" y2="1463.7791"/><rect fill="#FFFFFF" height="25.7544" style="stroke:#000000;stroke-width:1.0;" width="84.625" x="791.6875" y="1448.9019"/><text fill="#000000" font-family="sans-serif" font-size="13" font-weight="bold" lengthAdjust="spacing" textLength="66.625" x="797.6875" y="1467.7998">&#20445;&#23384;AI&#22238;&#31572;</text><polygon fill="#000000" points="1534.5,1504.4106,1544.5,1508.4106,1534.5,1512.4106,1538.5,1508.4106" style="stroke:#000000;stroke-width:1.0;"/><line style="stroke:#000000;stroke-width:1.0;" x1="934" x2="1540.5" y1="1508.4106" y2="1508.4106"/><text fill="#000000" font-family="sans-serif" font-size="13" lengthAdjust="spacing" textLength="332" x="941" y="1503.5542">saveMessage(sessionId, userId, aiResponse, "assistant")</text><polygon fill="#000000" points="945,1536.165,935,1540.165,945,1544.165,941,1540.165" style="stroke:#000000;stroke-width:1.0;"/><line style="stroke:#000000;stroke-width:1.0;" x1="939" x2="1550.5" y1="1540.165" y2="1540.165"/><text fill="#000000" font-family="sans-serif" font-size="13" lengthAdjust="spacing" textLength="90" x="951" y="1535.3086">&#36820;&#22238;AI&#22238;&#31572;&#35760;&#24405;</text><rect fill="#FFFFFF" height="3" style="stroke:#FFFFFF;stroke-width:1.0;" width="1658" x="5" y="1570.0422"/><line style="stroke:#000000;stroke-width:0.5;" x1="5" x2="1663" y1="1570.0422" y2="1570.0422"/><line style="stroke:#000000;stroke-width:0.5;" x1="5" x2="1663" y1="1573.0422" y2="1573.0422"/><rect fill="#FFFFFF" height="25.7544" style="stroke:#000000;stroke-width:1.0;" width="98.4375" x="784.7813" y="1558.165"/><text fill="#000000" font-family="sans-serif" font-size="13" font-weight="bold" lengthAdjust="spacing" textLength="80.4375" x="790.7813" y="1577.063">&#26356;&#26032;&#20250;&#35805;&#26102;&#38388;</text><polygon fill="#000000" points="1425,1613.6738,1435,1617.6738,1425,1621.6738,1429,1617.6738" style="stroke:#000000;stroke-width:1.0;"/><line style="stroke:#000000;stroke-width:1.0;" x1="934" x2="1431" y1="1617.6738" y2="1617.6738"/><text fill="#000000" font-family="sans-serif" font-size="13" lengthAdjust="spacing" textLength="177" x="941" y="1612.8174">updateSessionTime(sessionId)</text><polygon fill="#000000" points="945,1645.4282,935,1649.4282,945,1653.4282,941,1649.4282" style="stroke:#000000;stroke-width:1.0;"/><line style="stroke:#000000;stroke-width:1.0;" x1="939" x2="1441" y1="1649.4282" y2="1649.4282"/><text fill="#000000" font-family="sans-serif" font-size="13" lengthAdjust="spacing" textLength="143" x="951" y="1644.5718">&#26356;&#26032;&#20250;&#35805;&#30340;&#26368;&#21518;&#27963;&#21160;&#26102;&#38388;</text><polygon fill="#000000" points="567,1677.1826,557,1681.1826,567,1685.1826,563,1681.1826" style="stroke:#000000;stroke-width:1.0;"/><line style="stroke:#000000;stroke-width:1.0;" x1="561" x2="928" y1="1681.1826" y2="1681.1826"/><text fill="#000000" font-family="sans-serif" font-size="13" lengthAdjust="spacing" textLength="90" x="573" y="1676.3262">&#36820;&#22238;AI&#22238;&#31572;&#28040;&#24687;</text><polygon fill="#000000" points="313,1708.937,303,1712.937,313,1716.937,309,1712.937" style="stroke:#000000;stroke-width:1.0;"/><line style="stroke:#000000;stroke-width:1.0;" x1="307" x2="550" y1="1712.937" y2="1712.937"/><text fill="#000000" font-family="sans-serif" font-size="13" lengthAdjust="spacing" textLength="159" x="319" y="1708.0806">&#36820;&#22238;Result&lt;ChatMessage&gt;</text><rect fill="#FFFFFF" height="3" style="stroke:#FFFFFF;stroke-width:1.0;" width="1658" x="5" y="1742.8142"/><line style="stroke:#000000;stroke-width:0.5;" x1="5" x2="1663" y1="1742.8142" y2="1742.8142"/><line style="stroke:#000000;stroke-width:0.5;" x1="5" x2="1663" y1="1745.8142" y2="1745.8142"/><rect fill="#FFFFFF" height="25.7544" style="stroke:#000000;stroke-width:1.0;" width="98.4375" x="784.7813" y="1730.937"/><text fill="#000000" font-family="sans-serif" font-size="13" font-weight="bold" lengthAdjust="spacing" textLength="80.4375" x="790.7813" y="1749.835">&#26174;&#31034;&#22238;&#31572;&#20869;&#23481;</text><line style="stroke:#000000;stroke-width:1.0;" x1="302" x2="344" y1="1790.4458" y2="1790.4458"/><line style="stroke:#000000;stroke-width:1.0;" x1="344" x2="344" y1="1790.4458" y2="1803.4458"/><line style="stroke:#000000;stroke-width:1.0;" x1="303" x2="344" y1="1803.4458" y2="1803.4458"/><polygon fill="#000000" points="313,1799.4458,303,1803.4458,313,1807.4458,309,1803.4458" style="stroke:#000000;stroke-width:1.0;"/><text fill="#000000" font-family="sans-serif" font-size="13" lengthAdjust="spacing" textLength="137" x="309" y="1785.5894">&#35299;&#26512;AI&#22238;&#31572;&#30340;JSON&#26684;&#24335;</text><polygon fill="#000000" points="81,1831.2002,71,1835.2002,81,1839.2002,77,1835.2002" style="stroke:#000000;stroke-width:1.0;"/><line style="stroke:#000000;stroke-width:1.0;" x1="75" x2="301" y1="1835.2002" y2="1835.2002"/><text fill="#000000" font-family="sans-serif" font-size="13" lengthAdjust="spacing" textLength="175" x="87" y="1830.3438">&#26174;&#31034;&#22238;&#31572;&#20869;&#23481; (markdown&#28210;&#26579;)</text><polygon fill="#000000" points="81,1880.709,71,1884.709,81,1888.709,77,1884.709" style="stroke:#000000;stroke-width:1.0;"/><line style="stroke:#000000;stroke-width:1.0;" x1="75" x2="301" y1="1884.709" y2="1884.709"/><text fill="#000000" font-family="sans-serif" font-size="13" lengthAdjust="spacing" textLength="78" x="87" y="1862.0981">&#26174;&#31034;&#24341;&#29992;&#26469;&#28304;</text><text fill="#000000" font-family="sans-serif" font-size="13" lengthAdjust="spacing" textLength="125" x="87" y="1879.8525">(&#25991;&#26723;&#21517;&#31216;&#21644;&#27573;&#33853;&#20869;&#23481;)</text><rect fill="#FFFFFF" height="3" style="stroke:#FFFFFF;stroke-width:1.0;" width="1658" x="5" y="1914.5862"/><line style="stroke:#000000;stroke-width:0.5;" x1="5" x2="1663" y1="1914.5862" y2="1914.5862"/><line style="stroke:#000000;stroke-width:0.5;" x1="5" x2="1663" y1="1917.5862" y2="1917.5862"/><rect fill="#FFFFFF" height="25.7544" style="stroke:#000000;stroke-width:1.0;" width="98.4375" x="784.7813" y="1902.709"/><text fill="#000000" font-family="sans-serif" font-size="13" font-weight="bold" lengthAdjust="spacing" textLength="80.4375" x="790.7813" y="1921.6069">&#20445;&#23384;&#20250;&#35805;&#35760;&#24405;</text><line style="stroke:#000000;stroke-width:1.0;" x1="302" x2="344" y1="1962.2178" y2="1962.2178"/><line style="stroke:#000000;stroke-width:1.0;" x1="344" x2="344" y1="1962.2178" y2="1975.2178"/><line style="stroke:#000000;stroke-width:1.0;" x1="303" x2="344" y1="1975.2178" y2="1975.2178"/><polygon fill="#000000" points="313,1971.2178,303,1975.2178,313,1979.2178,309,1975.2178" style="stroke:#000000;stroke-width:1.0;"/><text fill="#000000" font-family="sans-serif" font-size="13" lengthAdjust="spacing" textLength="169" x="309" y="1957.3613">&#33258;&#21160;&#20445;&#23384;&#20250;&#35805;&#35760;&#24405;&#21040;&#26412;&#22320;&#23384;&#20648;</text><path d="M490,1946.9634 L490,1973.9634 L654,1973.9634 L654,1956.9634 L644,1946.9634 L490,1946.9634 " fill="#FFF8E1" style="stroke:#F57F17;stroke-width:1.0;"/><path d="M644,1946.9634 L644,1956.9634 L654,1956.9634 L644,1946.9634 " fill="#FFF8E1" style="stroke:#F57F17;stroke-width:1.0;"/><text fill="#000000" font-family="sans-serif" font-size="13" lengthAdjust="spacing" textLength="143" x="496" y="1966.8613">&#29992;&#25143;&#21487;&#38543;&#26102;&#26597;&#30475;&#21382;&#21490;&#38382;&#31572;</text><rect fill="#FFFFFF" height="3" style="stroke:#FFFFFF;stroke-width:1.0;" width="1658" x="5" y="2005.095"/><line style="stroke:#000000;stroke-width:0.5;" x1="5" x2="1663" y1="2005.095" y2="2005.095"/><line style="stroke:#000000;stroke-width:0.5;" x1="5" x2="1663" y1="2008.095" y2="2008.095"/><rect fill="#FFFFFF" height="25.7544" style="stroke:#000000;stroke-width:1.0;" width="111.8438" x="778.0781" y="1993.2178"/><text fill="#000000" font-family="sans-serif" font-size="13" font-weight="bold" lengthAdjust="spacing" textLength="93.8438" x="784.0781" y="2012.1157">&#32487;&#32493;&#23545;&#35805;&#25110;&#32467;&#26463;</text><path d="M15,2035.9722 L76,2035.9722 L76,2045.7266 L66,2055.7266 L15,2055.7266 L15,2035.9722 " fill="#FFFFFF" style="stroke:#000000;stroke-width:1.0;"/><rect fill="none" height="155.8179" style="stroke:#000000;stroke-width:1.0;" width="445" x="15" y="2035.9722"/><text fill="#000000" font-family="sans-serif" font-size="13" font-weight="bold" lengthAdjust="spacing" textLength="16" x="30" y="2051.8701">alt</text><text fill="#000000" font-family="sans-serif" font-size="11" font-weight="bold" lengthAdjust="spacing" textLength="98.75" x="91" y="2050.5781">[&#29992;&#25143;&#36873;&#25321;&#32487;&#32493;&#25552;&#38382;]</text><polygon fill="#000000" points="290,2087.3811,300,2091.3811,290,2095.3811,294,2091.3811" style="stroke:#000000;stroke-width:1.0;"/><line style="stroke:#000000;stroke-width:1.0;" x1="70" x2="296" y1="2091.3811" y2="2091.3811"/><text fill="#000000" font-family="sans-serif" font-size="13" lengthAdjust="spacing" textLength="78" x="77" y="2086.5247">&#36755;&#20837;&#26032;&#30340;&#38382;&#39064;</text><path d="M307,2060.7495 L307,2105.7495 L445,2105.7495 L445,2070.7495 L435,2060.7495 L307,2060.7495 " fill="#FFF8E1" style="stroke:#F57F17;stroke-width:1.0;"/><path d="M435,2060.7495 L435,2070.7495 L445,2070.7495 L435,2060.7495 " fill="#FFF8E1" style="stroke:#F57F17;stroke-width:1.0;"/><text fill="#000000" font-family="sans-serif" font-size="13" lengthAdjust="spacing" textLength="117" x="313" y="2080.6475">&#31995;&#32479;&#20445;&#25345;&#20250;&#35805;&#19978;&#19979;&#25991;</text><text fill="#000000" font-family="sans-serif" font-size="13" lengthAdjust="spacing" textLength="78" x="313" y="2098.4019">&#25903;&#25345;&#22810;&#36718;&#23545;&#35805;</text><line style="stroke:#000000;stroke-width:1.0;stroke-dasharray:2.0,2.0;" x1="15" x2="460" y1="2112.2583" y2="2112.2583"/><text fill="#000000" font-family="sans-serif" font-size="11" font-weight="bold" lengthAdjust="spacing" textLength="98.75" x="20" y="2124.8643">[&#29992;&#25143;&#36873;&#25321;&#32467;&#26463;&#20250;&#35805;]</text><polygon fill="#000000" points="290,2148.0356,300,2152.0356,290,2156.0356,294,2152.0356" style="stroke:#000000;stroke-width:1.0;"/><line style="stroke:#000000;stroke-width:1.0;" x1="70" x2="296" y1="2152.0356" y2="2152.0356"/><text fill="#000000" font-family="sans-serif" font-size="13" lengthAdjust="spacing" textLength="182" x="77" y="2147.1792">&#20851;&#38381;&#38382;&#31572;&#30028;&#38754;&#25110;&#20999;&#25442;&#21040;&#20854;&#20182;&#21151;&#33021;</text><polygon fill="#000000" points="81,2179.79,71,2183.79,81,2187.79,77,2183.79" style="stroke:#000000;stroke-width:1.0;"/><line style="stroke:#000000;stroke-width:1.0;" x1="75" x2="301" y1="2183.79" y2="2183.79"/><text fill="#000000" font-family="sans-serif" font-size="13" lengthAdjust="spacing" textLength="156" x="87" y="2178.9336">&#20445;&#23384;&#20250;&#35805;&#35760;&#24405;&#65292;&#36820;&#22238;&#20027;&#30028;&#38754;</text><path d="M11,2203.79 L11,2319.79 L1317,2319.79 L1317,2213.79 L1307,2203.79 L11,2203.79 " fill="#FFF8E1" style="stroke:#F57F17;stroke-width:1.0;"/><path d="M1307,2203.79 L1307,2213.79 L1317,2213.79 L1307,2203.79 " fill="#FFF8E1" style="stroke:#F57F17;stroke-width:1.0;"/><text fill="#000000" font-family="sans-serif" font-size="13" lengthAdjust="spacing" textLength="65" x="557.25" y="2223.688">&#21518;&#32622;&#26465;&#20214;&#65306;</text><text fill="#000000" font-family="sans-serif" font-size="13" lengthAdjust="spacing" textLength="205" x="557.25" y="2241.4424">- &#29992;&#25143;&#33719;&#24471;&#22522;&#20110;RAG&#25216;&#26415;&#30340;&#26234;&#33021;&#22238;&#31572;</text><text fill="#000000" font-family="sans-serif" font-size="13" lengthAdjust="spacing" textLength="177" x="557.25" y="2259.1968">- &#26174;&#31034;&#30456;&#20851;&#25991;&#26723;&#30340;&#24341;&#29992;&#26469;&#28304;&#20449;&#24687;</text><text fill="#000000" font-family="sans-serif" font-size="13" lengthAdjust="spacing" textLength="203" x="557.25" y="2276.9512">- &#20250;&#35805;&#35760;&#24405;&#33258;&#21160;&#20445;&#23384;&#65292;&#25903;&#25345;&#21382;&#21490;&#26597;&#30475;</text><text fill="#000000" font-family="sans-serif" font-size="13" lengthAdjust="spacing" textLength="177" x="557.25" y="2294.7056">- &#25903;&#25345;&#25351;&#23450;&#25991;&#26723;&#33539;&#22260;&#30340;&#31934;&#20934;&#38382;&#31572;</text><text fill="#000000" font-family="sans-serif" font-size="13" lengthAdjust="spacing" textLength="177" x="557.25" y="2312.46">- &#20445;&#25345;&#22810;&#36718;&#23545;&#35805;&#30340;&#19978;&#19979;&#25991;&#36830;&#36143;&#24615;</text><!--SRC=[fLTTJzjM6Bxth_2oYu54LRLJrGgDJWp8bcdzM6alfZ5LNcB0gh6HRQYg2YaK2042IGk5GW8f50Pb9Sae3P2Gy6TyZfsh_eMznyU1uoJjkXOai8_Vxu_dVSzNHhyu8FA3iY0ft3UydIbRfOnvj8SN9z7UabcQnmjP71lbz0UICYXemW0V4dk58TdmgufnKm1MtmqfgAcwsclmlma_YL9BjpH0_hLhaY3pznGfg8P4_aPtYoue-WLTrAHU7oFkJo7ue4zJXvHGXogh6l-rlulyCXJmrv22qg2W6FnZZeUV7sfvkgxvhtHTezzKBIHgxldbhgkTtrxcHXXfYcg87nBZz_klTLsg5-E_SjL_wIg8uGp9a4KUnnDcOREobAbil437UPpUib8pABbcxIrOA-DcOSOivl6xKRoKHuKuIfOvJWWQ8CXdfRViRCJAh5k9YBMmWwE7FbxG-NiG5OvrquUN2_PO2JGGaSzZbTMD7gKfe1YYB4jzecBysavUj5uXA3PJ4G6l07jq6cs-ndFRA9f7opl0tT4l61sGD4sLPL6ZNDwpXX9IisXwtMNl5hLXgQgHEV0otcd_qMF-sw9LJ8E4Eq9VXoo1yHunS5gL0fyaur5LitcoOcTNppJhkgGgbCLzwNB8QxXmFef7ioxN3I0K-bn5xaiD5yq2q9CSD9zbmwNYsjfu-pI99hROLF1jRHmXuYzSXxYtyjPo4PMUKpzHOkxzIQoUXxiNSCY1hPN7ByhMPe7zZ9x5q5m4nVUfroYwPA_lKFNbUIeAQgrMCVrcJ-vQutaxksVlX2aTvnIv9lNr6s2Tuo6APr5gXtwcR7Wz0drEdyrY4O_76mWY5W1h9Jpr_cG5noPHPWMG0Q-_icDZA7b0319amzK1L7ZcDKk5eulm0Ds0De-TjcAj_pYvMKgPHmNQL5GP5L0NHdIuJoL1wr4n5y-4k76irMmzEKQJHHzjOn_KGiXnb6thkXmxB2Z-j18U9MR6fi0qk_GNoyEvIVPsLIj_-rRtNVvY44ul3j0YrA7WT5h5WL0B7mHYACWMlbUInK18_nwUL1dmXpmt4_2GXWN8Q4sxSjxtHghxHADZIDD0E74c46fgzjI6MPoxsw-9GkWNDIZ8zXoKoI8gpQEfMPhHGASJcCfkpCwEqj8aWMcirstZLbw7WBhTndevv5Zm_xojGWF7l11z7WXevOS5MGe1ZtjShvKHwqKFprkT9wpZgFGC_RE6LySgomak97v07WcNURgAzbxG258ygWQDyS03Hn0pOLZyb9Zvo8cFSSSBQvwtEdViqmNIK8nXTYO7qCMwuvNdjCL2lfACk6r_c4NbyGRkUFG4ILq4ZKurE3G0LjyMZ7wzgUgActKcwTwQn2-FyMo6mW9jQTBBps9dJHtex55ScwR2E3Lb9O_Gn5lMFWgSkJ7m58OH1UO6Df-F7hP7UvJ7RfUsy27NW_k3u8AJXM5HqmK3idDV0b_w9Htc-gEHytGmuumxVwxLXj85ip171kKqU935hyBMmGRr0qKcKEQujajPb2JRMHr3Zs8jf74qGISlXKqoL4wUatIlRk52WdEW6a-LKJJ7nio1Hw-j3Qhc8u8XOh3QFHIr5bvNXxIWgBVolp-cZsUbE_B722VAEYnFgTtFjQ6oi6ndim2v0FizYgz64Wq4cRxPGmWGR6KKbW6kpQDfy-GbJXwWJJU85FMPkcSJHuRUvZZiQAwxZk3_Alf1JGNFTP1pHzG7LKKNpqfUEp_prZhAHQofrw28rgrTUeDdDs3iLS95k_oK7lOePlaKgeM0yjzPElCOc6aFK2E_6684gMeZe8m0dtK3rhalWvggSPy4Cya3l9YZM0kRSsNfe85BDRW_DCYW_brfW77iCn6VjOAWJoeC6nq-AABf7MhKHw2_GNMmizWR4eg_hBIwUUSTiSx2vuY0FC45x3jcmxrUAuVT4aXiwQPKKytkBaNaRh_2QucgQU3tpzstRkAN9-Watc1nzSXf6X2q1o7reOAFzd5wlhaHlGShccW3eiIijPqZk9vvPoTAL5epKzWq1xHoQgoTt8Lqr5C14k3K6vJAmJbwijDu2wwin26HxfNDMRdf7kvejehRLd4FPOz93KONhU8yNaqtMd8f8I0HCDUjb-v-lPY3GBgR8I7ncEFC9701xjRK1G9HHpCG6pBSo9KReCekPQWj53cz1X3JA6kT0G26bQKzzdu1pg3e980Bn0XDvCtY8ffE0vxNxTJrKNMkCwJipAEYUvTn5cR77HNceSFPmW8e4GfjOvKoU7KTXZRS7Pop2wuBPD4iBzKCGT9jp8nn6MW5iQC2wDY2Ca_NIHzHQjPkjah01pUeJiPfzgiQd0_rTnlGO-sNqMJ4hGzNWvCoDZVanb_DdNswPXzaSNYRXCX9EFSl]--></g></svg>